<?xml version="1.0" encoding="utf-8"?>
<!-- Uploaded to: SVG Repo, www.svgrepo.com, Generator: SVG Repo Mixer Tools -->
<svg width="800px" height="800px" viewBox="-39.85 0 432 432" xmlns="http://www.w3.org/2000/svg" xmlns:xlink="http://www.w3.org/1999/xlink">
  <defs>
    <clipPath id="clip-coffee_woman_mobile_phone">
      <rect width="352.296" height="432"/>
    </clipPath>
  </defs>
  <g id="coffee_woman_mobile_phone" data-name="coffee woman mobile phone" clip-path="url(#clip-coffee_woman_mobile_phone)">
    <rect width="352.296" height="432" fill="#ffffff"/>
    <g id="office_lifestyle_2" data-name="office lifestyle 2" transform="translate(-424.296)">
      <g id="Group_29" data-name="Group 29">
        <rect id="Rectangle_10" data-name="Rectangle 10" width="349.258" height="428.995" transform="translate(425.815 1.502)" fill="#fff28b"/>
        <path id="Path_445" data-name="Path 445" d="M425.815,0H775.073a1.5,1.5,0,0,1,1.5,1.5V430.5a1.5,1.5,0,0,1-1.5,1.5H425.815a1.5,1.5,0,0,1-1.5-1.5V1.5a1.5,1.5,0,0,1,1.5-1.5ZM773.571,3.005H427.317v425.99H773.571Z" fill="#1a1818" fill-rule="evenodd"/>
        <path id="Path_446" data-name="Path 446" d="M530.66,231.249l-16.8-24.69,24.147,19.6,4.358,18.95-6.259,11.024Z" fill="#ffffff" fill-rule="evenodd"/>
        <path id="Path_447" data-name="Path 447" d="M529.259,231.846,512.626,207.4a1.494,1.494,0,0,1,2.232-1.953l24.09,19.557a1.478,1.478,0,0,1,.513.825h0l4.358,18.95a1.483,1.483,0,0,1-.183,1.114l-6.234,10.98a1.491,1.491,0,0,1-2.756-.421h0l-5.385-24.606Zm-8.441-17.716,11.031,16.211a1.5,1.5,0,0,1,.272.592l4.612,21.075,4.047-7.126L536.666,227Z" fill="#1a1818" fill-rule="evenodd"/>
        <path id="Path_448" data-name="Path 448" d="M548.265,222.384l3.906,23.938,9.123,4.027-2.541-31.46-29.871-31.777-2.543-43.853-8.579,50.208Z" fill="#ffffff" fill-rule="evenodd"/>
        <path id="Path_449" data-name="Path 449" d="M549.742,222.17l3.771,23.111,6.088,2.687-2.3-28.44-29.51-31.393a1.491,1.491,0,0,1-.4-.941h0l-1.785-30.777-6.239,36.516L549.294,221.3a1.491,1.491,0,0,1,.448.868Zm.955,24.391-3.824-23.439L516.784,194.6a1.492,1.492,0,0,1-.5-1.384l8.579-50.207h0a1.493,1.493,0,0,1,2.962.169l2.511,43.307,29.445,31.324a1.485,1.485,0,0,1,.457.964l2.542,31.46h0a1.495,1.495,0,0,1-2.093,1.485l-9.123-4.027v0A1.492,1.492,0,0,1,550.7,246.561Z" fill="#1a1818" fill-rule="evenodd"/>
        <path id="Path_450" data-name="Path 450" d="M516.8,113.165l-10.7,23.144,6.892,33.643,2.2-31.232,11.144-24.175L502.187,76.527Z" fill="#ffffff" fill-rule="evenodd"/>
        <path id="Path_451" data-name="Path 451" d="M518.1,113.884l-10.454,22.6,4.619,22.551,1.44-20.416a1.457,1.457,0,0,1,.174-.6l10.771-23.366-15.2-23.926,8.734,21.892a1.459,1.459,0,0,1-.085,1.261ZM504.75,135.7l10.439-22.57L500.8,77.069l0,0a1.463,1.463,0,0,1,.591-1.784,1.494,1.494,0,0,1,2.048.46L527.6,113.761h0a1.455,1.455,0,0,1,.094,1.394L516.66,139.081l-2.184,30.969h0a1.486,1.486,0,0,1-2.936.19l-6.882-33.6A1.449,1.449,0,0,1,504.75,135.7Z" fill="#1a1818" fill-rule="evenodd"/>
        <path id="Path_452" data-name="Path 452" d="M648.649,247.11l-83.575,13.347-55.01,23.875-18.078-5.763-43.853,74.995L435.463,430.5H763.815l-3.309-72.8L734.13,269.354Z" fill="#f197ab" fill-rule="evenodd"/>
        <path id="Path_453" data-name="Path 453" d="M648.576,248.632,565.489,261.9l-54.834,23.8a1.481,1.481,0,0,1-1.04.052h0l-16.944-5.4-43.109,73.722L437.222,429H762.253l-3.228-71.045-26.087-87.371-84.362-21.953Zm-83.735,10.352L648.4,245.639a1.487,1.487,0,0,1,.621.027l85.389,22.22a1.493,1.493,0,0,1,1.149,1.041l26.376,88.341h0a1.539,1.539,0,0,1,.061.362l3.3,72.683a1.4,1.4,0,0,1,.011.184,1.5,1.5,0,0,1-1.5,1.5H435.463v0a1.514,1.514,0,0,1-.24-.02,1.492,1.492,0,0,1-1.233-1.712l12.67-76.934h0a1.5,1.5,0,0,1,.186-.515L490.7,277.815h0a1.492,1.492,0,0,1,1.736-.666l17.548,5.594,54.421-23.62A1.458,1.458,0,0,1,564.841,258.984Z" fill="#1a1818" fill-rule="evenodd"/>
        <path id="Path_454" data-name="Path 454" d="M594.659,122.839l70.307,26.455,13.745-25.976-7.019-40.426L630.886,53.247l-37.814,1.906L580.042,44.03l-20.02,5.4L550.17,67.545l2.543,13.346-15.57,31.778,4.449,28.283L537.779,156.2l15.57,29.235,23.833,10.168Z" fill="#57c5e6" fill-rule="evenodd"/>
        <path id="Path_455" data-name="Path 455" d="M595.185,121.442l69.077,25.992,12.89-24.361-6.828-39.329-39.892-28.98-37.29,1.879a1.482,1.482,0,0,1-1.04-.357h0l-12.428-10.61-18.649,5.034-9.289,17.076,2.444,12.829a1.485,1.485,0,0,1-.166,1.007L538.688,112.9l4.376,27.823a1.49,1.49,0,0,1-.027.589h0l-3.674,14.7,15.049,28.257,21.73,9.271,17.065-71.049A1.49,1.49,0,0,1,595,121.389a1.58,1.58,0,0,1,.181.055v0Zm69.256,29.249L595.713,124.83l-17.06,71.033a1.492,1.492,0,0,1-2.056,1.119l-23.833-10.168v0a1.487,1.487,0,0,1-.731-.67L536.511,157a1.491,1.491,0,0,1-.182-1.153l3.741-14.968-4.4-27.978h0a1.478,1.478,0,0,1,.134-.883l15.349-31.329L548.7,67.819h0a1.489,1.489,0,0,1,.156-.987l9.8-18.023a1.5,1.5,0,0,1,.972-.82l20.02-5.4v0a1.492,1.492,0,0,1,1.356.308L593.59,53.633l37.145-1.873a1.49,1.49,0,0,1,1.028.277l40.789,29.632a1.489,1.489,0,0,1,.613.971l7.019,40.427h0a1.491,1.491,0,0,1-.151.947L666.288,149.99A1.494,1.494,0,0,1,664.441,150.691Z" fill="#1a1818" fill-rule="evenodd"/>
        <path id="Path_456" data-name="Path 456" d="M661.879,255.744,596.244,296.9l-33.193-36.073,9.851-65.144-4.448-26.375-3.5,4.766-8.9-2.542L552.185,154.1l-3.117-14.026,3.813-7.945,13.664,8.58,2.86,18.749,6.039-21.292,12.393-11.757,5.084-18.431,27.647-15.253,21.609,9.533,19.065-4.767,9.534,27.966-5.4,20.654-.317,24.15-14.936,35.592L638.2,222.7l2.066,16.2Z" fill="#ffffff" fill-rule="evenodd"/>
        <path id="Path_457" data-name="Path 457" d="M662.6,257.049l-65.568,41.114a1.489,1.489,0,0,1-1.884-.254l0,0-33.193-36.073a1.494,1.494,0,0,1-.378-1.233h0l9.816-64.916-3.821-22.65-1.406,1.918a1.494,1.494,0,0,1-1.613.553v0l-8.9-2.542a1.494,1.494,0,0,1-1.071-1.229l-3.85-17.321L547.613,140.4a1.48,1.48,0,0,1,.124-.992l3.8-7.917a1.49,1.49,0,0,1,1.987-.7,1.474,1.474,0,0,1,.152.083h0l13.664,8.58a1.485,1.485,0,0,1,.68,1.041h0l1.821,11.944,4.16-14.668a1.478,1.478,0,0,1,.445-.712l12.059-11.44,4.974-18.03a1.483,1.483,0,0,1,.72-.91v0l27.646-15.253a1.5,1.5,0,0,1,1.321-.058h0l21.142,9.326,18.568-4.642a1.494,1.494,0,0,1,1.791,1.011l9.52,27.925a1.484,1.484,0,0,1,.009.929l-5.338,20.409-.315,23.963a1.466,1.466,0,0,1-.116.559l0,0L651.5,206.432a1.5,1.5,0,0,1-.25.4l-11.494,16.247,1.915,15.021L662.8,254.569a1.49,1.49,0,0,1-.2,2.48ZM596.505,294.98l62.78-39.367-19.933-15.536h0a1.485,1.485,0,0,1-.561-.987l-2.066-16.2h0a1.484,1.484,0,0,1,.261-1.047l11.8-16.684,14.778-35.216.312-23.788a1.5,1.5,0,0,1,.048-.413l5.288-20.22-8.946-26.243-17.717,4.43a1.487,1.487,0,0,1-.98-.078l-20.934-9.235-26.449,14.593-4.9,17.776a1.482,1.482,0,0,1-.422.731l-12.1,11.476-5.9,20.82a1.5,1.5,0,0,1-2.938-.106l-2.757-18.074L553.5,134.28l-2.867,5.973,3.006,13.525,3.68,16.561,7.048,2.013,2.865-3.906a1.494,1.494,0,0,1,2.692.618l4.434,26.29a1.5,1.5,0,0,1,.021.552l-9.745,64.439Z" fill="#1a1818" fill-rule="evenodd"/>
        <path id="Path_458" data-name="Path 458" d="M637.018,221.789a1.492,1.492,0,1,1,2.362,1.824l-11.123,14.458a1.492,1.492,0,0,1-1.26.578l-19.328-.316a1.488,1.488,0,0,1-1.033-.44h0l-23.04-23.277a1.493,1.493,0,0,1,2.117-2.105l22.615,22.849,18.023.3Z" fill="#1a1818" fill-rule="evenodd"/>
        <path id="Path_459" data-name="Path 459" d="M640.891,204.269l-7.151-5.085-5.719,1.43-5.244-2.86-15.367-.016,10.123,11.614,13.03,1.589Z" fill="#f197ab" fill-rule="evenodd"/>
        <path id="Path_460" data-name="Path 460" d="M638.232,204.209l-4.794-3.409-5.055,1.264a1.491,1.491,0,0,1-1.16-.186l-4.828-2.633-11.705-.012,7.588,8.705,11.931,1.455,8.023-5.184Zm-3.627-6.241,7.094,5.044a1.495,1.495,0,0,1,0,2.514l-10.27,6.635a1.483,1.483,0,0,1-1.04.265l-13.03-1.589v0a1.49,1.49,0,0,1-.947-.5l-10.124-11.614h0a1.49,1.49,0,0,1,1.122-2.472l15.327.016a1.49,1.49,0,0,1,.753.181l4.729,2.579,5.158-1.29v0A1.489,1.489,0,0,1,634.6,197.968Z" fill="#1a1818" fill-rule="evenodd"/>
        <path id="Path_461" data-name="Path 461" d="M518.352,270.784l-17.795-5.244,4.607-16.525,8.421-8.1,5.755.318,2.03,5.243-.635,8.9Z" fill="#ffffff" fill-rule="evenodd"/>
        <path id="Path_462" data-name="Path 462" d="M517.931,272.217l-17.794-5.244a1.492,1.492,0,0,1-1.012-1.853l.01-.033,4.592-16.469a1.485,1.485,0,0,1,.4-.678h0l8.422-8.1a1.486,1.486,0,0,1,1.116-.415h0l5.756.318a1.492,1.492,0,0,1,1.334,1.017l2,5.18a1.481,1.481,0,0,1,.1.642h0l-.636,8.9a1.548,1.548,0,0,1-.033.228l-2.368,15.307a1.5,1.5,0,0,1-1.893,1.2v0Zm-15.542-7.693,14.751,4.347,2.107-13.623.61-8.553-1.558-4.027-4.146-.229-7.661,7.371Z" fill="#1a1818" fill-rule="evenodd"/>
        <path id="Path_463" data-name="Path 463" d="M523.594,258.232l-3.336-4.289-9.216-1.113-5.561,2.7-22.4,17.161,9.7,8.817,19.863,3.96L519.047,287l9-3.985Z" fill="#fff28b" fill-rule="evenodd"/>
        <path id="Path_464" data-name="Path 464" d="M522.194,258.868l-2.734-3.515-8.164-.986-5.026,2.441L485.407,272.79l8.068,7.333L512.934,284a1.572,1.572,0,0,1,.185.049l5.778,1.385,7.472-3.309-4.175-23.259Zm-.755-5.842,3.336,4.289,0,0a1.485,1.485,0,0,1,.291.652l4.429,24.677a1.5,1.5,0,0,1-.846,1.74l-9,3.985v0a1.485,1.485,0,0,1-.946.086l-6.278-1.505-.074-.013-19.863-3.959v0a1.483,1.483,0,0,1-.714-.361l-9.7-8.816h0a1.368,1.368,0,0,1-.181-.2,1.493,1.493,0,0,1,.28-2.093l22.4-17.161a1.362,1.362,0,0,1,.257-.158l5.487-2.666a1.482,1.482,0,0,1,.9-.175l9.188,1.11A1.492,1.492,0,0,1,521.439,253.026Z" fill="#1a1818" fill-rule="evenodd"/>
        <path id="Path_465" data-name="Path 465" d="M702,257.131l-9.375,6.039-34.161,77.537,44.807,22.561,41.788-91.041-3.812-8.739Z" fill="#57c5e6" fill-rule="evenodd"/>
        <path id="Path_466" data-name="Path 466" d="M702.331,258.7l-8.517,5.486L660.4,340.012l42.159,21.228,40.863-89.028-3.221-7.382L702.331,258.7Zm-10.511,3.218,9.375-6.039v0a1.485,1.485,0,0,1,1.04-.218l39.21,6.351a1.491,1.491,0,0,1,1.169.883l3.813,8.739h0a1.492,1.492,0,0,1-.011,1.215l-41.758,90.978c-.016.039-.033.078-.053.117a1.493,1.493,0,0,1-2.005.66l-44.745-22.53a1.5,1.5,0,0,1-.758-1.966l34.162-77.537h0A1.484,1.484,0,0,1,691.82,261.913Z" fill="#1a1818" fill-rule="evenodd"/>
        <path id="Path_467" data-name="Path 467" d="M699.453,269.127l3.575-3.021,8.421,1.033.874,3.813-2.463,3.257-9.454-1.112Z" fill="#ffffff" fill-rule="evenodd"/>
        <path id="Path_468" data-name="Path 468" d="M698.488,267.987l3.576-3.02a1.49,1.49,0,0,1,1.145-.343v0l8.421,1.033a1.5,1.5,0,0,1,1.294,1.235l.855,3.729a1.492,1.492,0,0,1-.264,1.233h0l-2.464,3.257a1.492,1.492,0,0,1-1.362.584l-9.454-1.112a1.5,1.5,0,0,1-1.307-1.249L698,269.472a1.491,1.491,0,0,1,.487-1.483l0,0Zm5-.317-2.374,2.006.494,2.059,7.574.891,1.527-2.02-.484-2.109Z" fill="#1a1818" fill-rule="evenodd"/>
        <path id="Path_469" data-name="Path 469" d="M499.745,392.694a1.5,1.5,0,0,1,2.97-.363l4.639,37.985a1.5,1.5,0,1,1-2.969.363Z" fill="#1a1818" fill-rule="evenodd"/>
        <path id="Path_470" data-name="Path 470" d="M676.231,363.3a1.492,1.492,0,0,1,2.724,1.216L649.1,431.105a1.492,1.492,0,1,1-2.724-1.216Z" fill="#1a1818" fill-rule="evenodd"/>
        <path id="Path_471" data-name="Path 471" d="M701.409,430.5l11.257-34.348-10.8-8.579-5.4-12.076-50.368-32.1,1.01-4.977,3.915-2.65,44.012,19.385.954-1.429L649.27,325.443l1.771-5.85,4.267-3.524,49.255,25.741,3.655-4.29-7.794-8.831-34.789-22.946.124-7.422,6.709-3.7,37.5,20.657,10.486,9.852,3.019-3.655L722.2,314.8,700.115,290.17l2.216-7,6.523-.946,27.805,23.2,4.925,13.983,3.337,5.244,9.695,54.658-9.968,51.19Z" fill="#ffffff" fill-rule="evenodd"/>
        <path id="Path_472" data-name="Path 472" d="M700.02,429.941l10.9-33.269-9.991-7.933a1.484,1.484,0,0,1-.465-.632l-5.188-11.6-49.989-31.855a1.492,1.492,0,0,1-.652-1.59l1-4.936a1.488,1.488,0,0,1,.629-.943l0,0,3.915-2.649a1.493,1.493,0,0,1,1.47-.115l35.09,15.456L648.5,326.718a1.49,1.49,0,0,1-.655-1.706h-.006l1.77-5.851a1.5,1.5,0,0,1,.534-.764l4.213-3.479a1.5,1.5,0,0,1,1.749-.113L704.2,339.937l2.046-2.4-6.808-7.713-34.619-22.834a1.487,1.487,0,0,1-.671-1.269h0l.124-7.422a1.486,1.486,0,0,1,.773-1.283l0,0,6.709-3.7a1.494,1.494,0,0,1,1.451.007l37.484,20.65a1.5,1.5,0,0,1,.353.267l9.276,8.716,1.56-1.889-1.062-5.578L699,291.164a1.492,1.492,0,0,1-.311-1.442l-.005,0,2.216-7a1.5,1.5,0,0,1,1.29-1.04l6.449-.936a1.492,1.492,0,0,1,1.245.4l27.723,23.129a1.484,1.484,0,0,1,.453.65h0l4.874,13.837,3.236,5.086a1.489,1.489,0,0,1,.212.544h0l9.7,54.658a1.5,1.5,0,0,1-.021.616l-9.953,51.112a1.494,1.494,0,0,1-1.467,1.213v0H701.409a1.5,1.5,0,0,1-1.389-2.053Zm14.067-33.33L703.472,429h39.944l9.679-49.7-9.6-54.11-3.112-4.892a1.487,1.487,0,0,1-.21-.394l-4.791-13.6-26.971-22.5-4.939.717-1.678,5.3,21.457,23.927a1.478,1.478,0,0,1,.415.783l1.255,6.591a1.493,1.493,0,0,1-.3,1.309l-3.02,3.655h0c-.021.024-.041.048-.063.071a1.493,1.493,0,0,1-2.11.064l-10.345-9.719-36.615-20.171-5.234,2.889-.1,5.738L701.2,327.413a1.507,1.507,0,0,1,.344.288l7.745,8.776a1.493,1.493,0,0,1,.066,2.013l-3.655,4.29h0a1.492,1.492,0,0,1-1.822.352L655.5,317.85l-3.156,2.606-1.3,4.315,45.654,27.642a1.41,1.41,0,0,1,.122.074,1.49,1.49,0,0,1,.409,2.069l-.9,1.348a1.494,1.494,0,0,1-1.9.619l-43.256-19.051-2.731,1.848-.684,3.37,49.461,31.519a1.482,1.482,0,0,1,.605.677l5.251,11.738,10.5,8.337A1.494,1.494,0,0,1,714.087,396.611Z" fill="#1a1818" fill-rule="evenodd"/>
        <path id="Path_473" data-name="Path 473" d="M529.485,313l-17.726,3-11.195-.246,1.906,7.944-4.768,8.261,3.5,60.378L483.257,430.5H468.345l-7.185-33.716,11.122-72.134-3.813-16.525-3.495-6.038,1.906-6.356L463.2,285.89l5.271-9.864,1.589-9.85,14.618-4.132,10.8-6.355,13.505,2.066,6.515,7.15.8,8.9-13.982-2.7-9.056,3.813,14.617,2.067,16.26,5Z" fill="#ffffff" fill-rule="evenodd"/>
        <g id="Group_28" data-name="Group 28">
          <path id="Path_474" data-name="Path 474" d="M529.686,314.48l-17.681,2.989a1.54,1.54,0,0,1-.37.016l-9.17-.2,1.455,6.066a1.485,1.485,0,0,1-.17,1.109l-4.532,7.85,3.471,59.942a1.477,1.477,0,0,1-.176.79l-17.906,38.089a1.49,1.49,0,0,1-1.35.859v.006H468.344a1.5,1.5,0,0,1-1.48-1.275L459.7,397.091a1.5,1.5,0,0,1-.016-.538h0L470.76,324.7l-3.7-16.02-3.381-5.842a1.489,1.489,0,0,1-.139-1.175h0l1.764-5.883L461.8,286.41a1.487,1.487,0,0,1,.082-1.222l0,0,.007-.011,5.144-9.627,1.549-9.6a1.489,1.489,0,0,1,1.071-1.2v0l14.44-4.082,10.631-6.252a1.483,1.483,0,0,1,.976-.188v-.005l13.505,2.066a1.488,1.488,0,0,1,.927.521l6.47,7.1a1.486,1.486,0,0,1,.389.976l.786,8.8a1.49,1.49,0,0,1-1.356,1.613,1.466,1.466,0,0,1-.409-.021v0l-13.545-2.616-3.657,1.539,9.266,1.311a1.517,1.517,0,0,1,.29.07l16.2,4.978a1.487,1.487,0,0,1,1.032,1.175h0l5.354,31.022a1.5,1.5,0,0,1-1.222,1.724l-.051.008Zm-18.049.022,16.121-2.725-4.943-28.644-15.262-4.689-14.5-2.05v0a1.491,1.491,0,0,1-.374-2.851l8.969-3.777a1.493,1.493,0,0,1,.946-.13l12.041,2.325-.573-6.415-5.822-6.39-12.467-1.906-10.26,6.033a1.462,1.462,0,0,1-.434.2l-13.7,3.873-1.437,8.9h0a1.481,1.481,0,0,1-.157.467L464.829,286l3.41,9.112a1.48,1.48,0,0,1,.072,1.045L466.59,301.9l3.146,5.434a1.51,1.51,0,0,1,.188.458l3.79,16.424a1.5,1.5,0,0,1,.047.662l-11.081,71.87L469.553,429h12.76l17.374-36.956-3.475-60.009h0a1.48,1.48,0,0,1,.2-.824l4.472-7.748-1.756-7.318a1.492,1.492,0,0,1,1.467-1.887l11.043.243Zm-3.269-38.929.984,1.613A1.494,1.494,0,0,0,508.368,275.573Z" fill="#1a1818" fill-rule="evenodd"/>
        </g>
        <path id="Path_475" data-name="Path 475" d="M527.2,293.3a1.5,1.5,0,1,1-.514,2.946l-19.892-3.474-22.074.631a1.491,1.491,0,0,1-.082-2.981l22.127-.632a1.5,1.5,0,0,1,.416.014Z" fill="#1a1818" fill-rule="evenodd"/>
        <path id="Path_476" data-name="Path 476" d="M528.458,303.772a1.492,1.492,0,1,1,.14,2.981l-19.384.954a1.637,1.637,0,0,1-.172,0l-25.373-.951a1.491,1.491,0,1,1,.1-2.981l25.353.951Z" fill="#1a1818" fill-rule="evenodd"/>
        <path id="Path_477" data-name="Path 477" d="M571.1,241.233l17,4.289L574.6,327.666,553.3,332.433l-21.287-4.767-13.982-81.032,20.973-5.4Z" fill="#fff28b" fill-rule="evenodd"/>
        <path id="Path_478" data-name="Path 478" d="M571.551,239.8l16.914,4.267a1.493,1.493,0,0,1,1.1,1.761L576.07,327.906a1.492,1.492,0,0,1-1.224,1.232l-21.221,4.751a1.5,1.5,0,0,1-.671-.006L531.7,329.122a1.492,1.492,0,0,1-1.149-1.205h0l-13.982-81.033a1.494,1.494,0,0,1,1.21-1.722l20.868-5.374a1.508,1.508,0,0,1,.368-.046v-.007H571.1a1.517,1.517,0,0,1,.449.069Zm14.857,6.83-15.483-3.906H539.171l-19.431,5,13.58,78.7L553.3,330.9l19.985-4.473Z" fill="#1a1818" fill-rule="evenodd"/>
        <path id="Path_479" data-name="Path 479" d="M519.261,66.737l-5.719-18.954-.952,21.746,9.532,13.932,4.449,20.566,3.178-22.979Z" fill="#ffffff" fill-rule="evenodd"/>
        <path id="Path_480" data-name="Path 480" d="M517.829,67.163l-3.181-10.541L514.1,69.1l9.253,13.524a1.5,1.5,0,0,1,.227.526h0l2.665,12.318,1.939-14.02-10.13-13.824a1.475,1.475,0,0,1-.227-.456Zm-2.855-19.807,5.645,18.707,10.334,14.1h0a1.482,1.482,0,0,1,.275,1.087l-3.166,22.9a1.495,1.495,0,0,1-2.951.191l-4.388-20.283L511.356,70.37h0a1.491,1.491,0,0,1-.258-.905l.948-21.654a1.495,1.495,0,0,1,2.927-.454Z" fill="#1a1818" fill-rule="evenodd"/>
      </g>
    </g>
  </g>
</svg>