<?xml version="1.0" encoding="iso-8859-1"?>
<!-- Uploaded to: SVG Repo, www.svgrepo.com, Generator: SVG Repo Mixer Tools -->
<svg version="1.1" id="Layer_1" xmlns="http://www.w3.org/2000/svg" xmlns:xlink="http://www.w3.org/1999/xlink" 
	 viewBox="0 0 512 512" xml:space="preserve">
<g>
	<path style="fill:#FFB819;" d="M341.208,50.039c15.215,0,17.383,12.025,16.376,17.812c-8.438,48.461-50.708,85.305-101.584,85.305
		s-93.146-36.844-101.584-85.305c-1.008-5.786,1.161-17.812,16.376-17.812C170.791,50.039,341.208,50.039,341.208,50.039z"/>
	<rect x="38.391" y="169.271" style="fill:#FFB819;" width="435.224" height="285.375"/>
</g>
<rect x="38.391" y="295.134" style="opacity:0.1;enable-background:new    ;" width="45.864" height="22.071"/>
<rect x="110.822" y="230.747" style="opacity:0.1;enable-background:new    ;" width="45.864" height="22.071"/>
<rect x="252.16" y="223.782" style="opacity:0.1;enable-background:new    ;" width="45.864" height="22.071"/>
<rect x="181.444" y="183.052" style="opacity:0.1;enable-background:new    ;" width="45.864" height="22.071"/>
<rect x="427.751" y="255.272" style="opacity:0.1;enable-background:new    ;" width="45.864" height="22.07"/>
<rect x="420.183" y="390.894" style="opacity:0.1;enable-background:new    ;" width="45.864" height="22.071"/>
<rect x="323.766" y="411.545" style="opacity:0.1;enable-background:new    ;" width="45.864" height="22.07"/>
<rect x="242.327" y="349.201" style="opacity:0.1;enable-background:new    ;" width="45.864" height="22.071"/>
<rect x="57.327" y="409.428" style="opacity:0.1;enable-background:new    ;" width="45.864" height="22.07"/>
<path style="fill:#00B3E3;" d="M28.427,180.371v14.098c0,17.955,14.555,32.51,32.51,32.51s32.51-14.555,32.51-32.51v-14.098H28.427z
	"/>
<path style="fill:#FFFFFF;" d="M93.448,180.371v14.098c0,17.955,14.555,32.51,32.51,32.51s32.51-14.555,32.51-32.51v-14.098H93.448z
	"/>
<path style="fill:#00B3E3;" d="M158.468,180.371v14.098c0,17.955,14.556,32.51,32.51,32.51c17.955,0,32.51-14.555,32.51-32.51
	v-14.098H158.468z"/>
<path style="fill:#FFFFFF;" d="M223.49,180.371v14.098c0,17.955,14.555,32.51,32.51,32.51s32.51-14.555,32.51-32.51v-14.098H223.49z
	"/>
<path style="fill:#00B3E3;" d="M288.51,180.371v14.098c0,17.955,14.555,32.51,32.51,32.51c17.955,0,32.51-14.555,32.51-32.51
	v-14.098H288.51z"/>
<path style="fill:#FFFFFF;" d="M353.53,180.371v14.098c0,17.955,14.555,32.51,32.51,32.51c17.955,0,32.51-14.555,32.51-32.51
	v-14.098H353.53z"/>
<path style="fill:#00B3E3;" d="M418.552,180.371v14.098c0,17.955,14.555,32.51,32.51,32.51c17.955,0,32.51-14.555,32.51-32.51
	v-14.098H418.552z"/>
<path style="fill:#333E48;" d="M491.901,183.5c0,5.822-4.763,10.585-10.585,10.585H30.683c-5.822,0-10.585-4.763-10.585-10.585
	v-24.89c0-5.822,4.763-10.585,10.585-10.585h450.632c5.822,0,10.585,4.763,10.585,10.585v24.89H491.901z"/>
<rect x="276.897" y="266.301" style="fill:#FFFFFF;" width="143.116" height="188.345"/>
<rect x="302.131" y="293.356" style="fill:#00B3E3;" width="92.648" height="66.525"/>
<rect x="326.486" y="314.451" style="fill:#FFFFFF;" width="43.946" height="15.877"/>
<path style="fill:#333E48;" d="M504.061,457.684c0,2.352-1.922,4.276-4.275,4.276H12.214c-2.352,0-4.275-1.924-4.275-4.276v-15.302
	c0-2.352,1.923-4.276,4.275-4.276h487.573c2.353,0,4.275,1.924,4.275,4.276V457.684z"/>
<rect x="256.818" y="438.102" style="fill:#A4A9AD;" width="183.275" height="23.855"/>
<rect x="73.172" y="266.301" style="fill:#333E48;" width="168.933" height="116.76"/>
<polygon style="fill:#00B3E3;" points="179.768,294.705 135.514,294.705 125.804,328.401 189.479,328.401 "/>
<rect x="149.7" y="266.301" style="fill:#FFFFFF;" width="15.877" height="28.402"/>
<g>
	<path style="fill:#00B3E3;" d="M96.699,383.064v-23.183c0-4.384,3.554-7.939,7.939-7.939s7.939,3.554,7.939,7.939v23.182H96.699
		V383.064z"/>
	<path style="fill:#00B3E3;" d="M202.706,383.064v-23.183c0-4.384,3.554-7.939,7.939-7.939s7.939,3.554,7.939,7.939v23.182h-15.877
		V383.064z"/>
</g>
<path style="fill:#1E252B;" d="M310.046,398.887c4.369,0,7.912-3.543,7.912-7.912s-3.543-7.912-7.912-7.912
	c-4.37,0-7.912,3.543-7.912,7.912C302.133,395.344,305.676,398.887,310.046,398.887z M242.11,258.365H73.172
	c-4.384,0-7.939,3.554-7.939,7.939v116.759c0,4.384,3.554,7.939,7.939,7.939h168.937c4.384,0,7.939-3.554,7.939-7.939V266.303
	C250.049,261.919,246.494,258.365,242.11,258.365z M234.172,375.125H81.111V274.242h153.06v100.883H234.172z M499.786,430.167
	h-18.234V221c5.233-6.006,8.724-13.562,9.681-21.883c5.163-3.291,8.605-9.054,8.605-15.618v-24.89
	c0-10.213-8.31-18.523-18.523-18.523H321.091c4.949-3.571,9.576-7.537,13.846-11.844h26.572c15.777,0,28.611-12.834,28.611-28.611
	c0-14.589-10.977-26.653-25.106-28.388c0.131-0.676,0.271-1.35,0.39-2.03c0.92-5.28,0.096-13.069-4.971-19.095
	c-3.076-3.658-8.908-8.017-19.226-8.017H170.792c-10.318,0-16.15,4.36-19.226,8.017c-5.068,6.027-5.89,13.815-4.971,19.095
	c5.044,28.967,21.193,54.189,44.314,70.874H30.683c-10.213,0-18.523,8.31-18.523,18.523v24.89c0,6.564,3.441,12.327,8.604,15.617
	c0.957,8.322,4.449,15.879,9.683,21.886v209.163H12.214C5.479,430.167,0,435.646,0,442.381v15.302
	c0,6.735,5.479,12.215,12.214,12.215h487.573c6.735,0,12.214-5.48,12.214-12.215v-15.302
	C512,435.646,506.521,430.167,499.786,430.167z M360.795,86.898h0.714c7.021,0,12.733,5.713,12.733,12.733
	s-5.713,12.733-12.733,12.733h-13.53C353.289,104.523,357.615,95.979,360.795,86.898z M162.237,66.488
	c-0.255-1.462-0.07-4.307,1.482-6.153c1.316-1.565,3.695-2.358,7.074-2.358h170.415c3.378,0,5.757,0.794,7.074,2.358
	c1.552,1.846,1.737,4.69,1.482,6.153c-5.959,34.226-30.018,62.338-62.885,73.598h-61.755
	C192.257,128.826,168.196,100.713,162.237,66.488z M28.037,183.5v-24.89c0-1.434,1.212-2.646,2.646-2.646h450.632
	c1.434,0,2.646,1.212,2.646,2.646v24.89c0,1.434-1.212,2.646-2.646,2.646H30.683C29.249,186.146,28.037,184.934,28.037,183.5z
	 M420.014,258.365H276.898c-4.384,0-7.939,3.554-7.939,7.939v163.864H46.325V232.175c4.537,1.763,9.462,2.743,14.613,2.743
	c13.309,0,25.135-6.464,32.51-16.415c7.375,9.951,19.202,16.415,32.51,16.415c13.309,0,25.135-6.464,32.51-16.415
	c7.375,9.951,19.202,16.415,32.51,16.415s25.135-6.464,32.51-16.415c7.375,9.951,19.202,16.415,32.51,16.415
	s25.135-6.464,32.51-16.415c7.375,9.951,19.202,16.415,32.51,16.415c13.309,0,25.135-6.464,32.51-16.415
	c7.375,9.951,19.202,16.415,32.51,16.415c13.309,0,25.135-6.464,32.51-16.415c7.375,9.951,19.202,16.415,32.51,16.415
	c5.153,0,10.079-0.979,14.615-2.744v197.992h-37.722V266.303C427.953,261.919,424.4,258.365,420.014,258.365z M412.076,274.242
	v155.925H284.837V274.242H412.076z M37.559,202.023h46.758c-3.196,9.863-12.465,17.018-23.379,17.018
	C50.025,219.04,40.754,211.886,37.559,202.023z M102.58,202.023h46.757c-3.196,9.863-12.465,17.018-23.379,17.018
	C115.045,219.04,105.775,211.886,102.58,202.023z M167.601,202.023h46.757c-3.196,9.863-12.465,17.018-23.379,17.018
	C180.066,219.04,170.795,211.886,167.601,202.023z M232.621,202.023h46.757c-3.194,9.863-12.465,17.018-23.379,17.018
	C245.086,219.04,235.815,211.886,232.621,202.023z M297.641,202.023h46.757c-3.196,9.863-12.465,17.018-23.379,17.018
	C310.107,219.04,300.835,211.886,297.641,202.023z M362.661,202.023h46.757c-3.196,9.863-12.465,17.018-23.379,17.018
	C375.125,219.04,365.856,211.886,362.661,202.023z M451.06,219.04c-10.914,0-20.184-7.154-23.379-17.018h46.757
	C471.243,211.886,461.973,219.04,451.06,219.04z M248.879,454.022H15.877v-7.978h233.002V454.022z M432.15,454.022H264.756v-7.978
	H432.15V454.022z M496.123,454.022h-48.096v-7.978h48.096V454.022z"/>
</svg>