<?xml version="1.0" encoding="iso-8859-1"?>
<!-- Uploaded to: SVG Repo, www.svgrepo.com, Generator: SVG Repo Mixer Tools -->
<svg fill="#000000" height="800px" width="800px" version="1.1" id="Layer_1" xmlns="http://www.w3.org/2000/svg" xmlns:xlink="http://www.w3.org/1999/xlink" 
	 viewBox="0 0 511.999 511.999" xml:space="preserve">
<g>
	<g>
		<path d="M232.62,297.663c-3.219-1.183-6.833-0.236-9.055,2.375l-21.88,25.702l-21.881-25.702c-2.221-2.61-5.835-3.558-9.055-2.375
			c-3.218,1.183-5.356,4.25-5.356,7.678v52.956c0,4.518,3.662,8.181,8.181,8.181c4.519,0,8.181-3.663,8.181-8.181v-30.726
			l13.7,16.092c1.554,1.826,3.832,2.877,6.229,2.877s4.675-1.052,6.229-2.877l13.699-16.092v30.725c0,4.519,3.663,8.182,8.181,8.182
			c4.519,0,8.181-3.663,8.181-8.181v-52.956C237.976,301.913,235.838,298.848,232.62,297.663z"/>
	</g>
</g>
<g>
	<g>
		<path d="M387.456,297.663c-3.219-1.183-6.833-0.236-9.055,2.375l-21.88,25.702l-21.88-25.702c-2.222-2.61-5.836-3.558-9.055-2.375
			c-3.218,1.183-5.356,4.25-5.356,7.678v52.956c0,4.518,3.662,8.181,8.181,8.181s8.181-3.663,8.181-8.181v-30.725l13.699,16.092
			c1.554,1.826,3.832,2.877,6.229,2.877s4.675-1.052,6.229-2.877l13.699-16.092v30.725c0,4.518,3.662,8.181,8.181,8.181
			c4.519,0,8.181-3.663,8.181-8.181v-52.956C392.812,301.913,390.674,298.848,387.456,297.663z"/>
	</g>
</g>
<g>
	<g>
		<path d="M279.104,297.162c-20.01-0.001-36.29,15.547-36.29,34.658c0,19.112,16.28,34.658,36.29,34.658
			c20.011,0,36.291-15.548,36.291-34.658C315.395,312.71,299.116,297.162,279.104,297.162z M279.103,350.117
			c-10.99,0-19.928-8.208-19.928-18.297s8.939-18.297,19.928-18.297c10.99,0,19.93,8.207,19.93,18.297
			S290.093,350.117,279.103,350.117z"/>
	</g>
</g>
<g>
	<g>
		<path d="M503.349,250.944c-7.522-10.889-19.59-18.529-31.495-19.939c-15.359-1.823-30.316,4.382-41.088,10.709l2.875-21.709
			c0.31-2.336-0.404-4.694-1.957-6.466c-1.553-1.773-3.795-2.789-6.153-2.789h-46.427c-4.519,0-8.181,3.663-8.181,8.181
			s3.662,8.181,8.181,8.181h37.091l-20.772,156.803c-3.975,29.995-29.788,52.614-60.045,52.614l-112.757-0.004
			c-30.169-0.103-55.874-22.683-59.838-52.609l-20.773-156.804h204.373c4.519,0,8.181-3.663,8.181-8.181
			c0-4.518-3.662-8.181-8.181-8.181H245.637v-18.541c0-4.518-3.662-8.181-8.181-8.181c-4.519,0-8.181,3.663-8.181,8.181v18.541
			h-96.601c-2.357,0-4.6,1.017-6.153,2.789c-1.553,1.773-2.267,4.13-1.957,6.466l15.968,120.527H124.97
			c-4.519,0-8.181,3.663-8.181,8.181s3.662,8.181,8.181,8.181h17.731l3.865,29.169c2.726,20.572,13.547,38.401,28.97,50.46H46.385
			v-79.63h51.316c4.519,0,8.181-3.663,8.181-8.181s-3.662-8.181-8.181-8.181H46.385V227.111h57.859c4.519,0,8.181-3.663,8.181-8.181
			c0-4.518-3.662-8.181-8.181-8.181H46.385v-81.465h182.89v35.654c0,4.518,3.662,8.181,8.181,8.181s8.181-3.663,8.181-8.181v-43.835
			c0-0.022-0.003-0.043-0.003-0.063V67.292c0-4.518-3.662-8.181-8.181-8.181H56.803c-17.43,0-33.654,7.829-44.512,21.477
			C1.534,94.11-2.417,111.482,1.451,128.251c5.31,23.02,14.919,38.839,28.572,47.174v269.279c0,4.518,3.662,8.181,8.181,8.181
			l297.175,0.004c38.43,0,71.217-28.729,76.265-66.827l1.521-11.476c2.271,8.139,7.367,16.857,15.4,26.33
			c1.618,1.909,3.924,2.891,6.245,2.891c1.87,0,3.749-0.637,5.287-1.94c3.446-2.922,3.871-8.085,0.949-11.531
			c-9.812-11.573-14.059-21.027-12.621-28.098c2.207-10.863,18.749-19.195,34.748-27.254c20.593-10.373,41.887-21.1,46.997-41.636
			C515.086,273.578,509.174,259.376,503.349,250.944z M30.024,121.104v32.707c-5.487-6.842-9.717-16.61-12.63-29.237
			c-2.741-11.882,0.067-24.201,7.702-33.798c7.737-9.725,19.294-15.302,31.708-15.302h172.469v37.45H38.204
			C33.685,112.923,30.024,116.586,30.024,121.104z M494.29,289.398c-3.296,13.251-21.183,22.261-38.479,30.974
			c-15.512,7.814-31.436,15.845-39.199,28.201l11.262-85.016c6.203-4.994,24.649-18.362,42.056-16.303
			c7.268,0.862,15.103,5.96,19.959,12.992C493.797,265.902,497.734,275.555,494.29,289.398z"/>
	</g>
</g>
<g>
	<g>
		<path d="M299.092,126.606c-5.654-4.451-7.789-6.532-7.789-10.753c0-4.219,2.136-6.299,7.788-10.75
			c5.921-4.661,14.027-11.045,14.027-23.605c0-4.518-3.662-8.181-8.181-8.181c-4.519,0-8.181,3.663-8.181,8.181
			c0,4.22-2.136,6.299-7.788,10.75c-5.921,4.661-14.027,11.045-14.027,23.604c0,12.56,8.108,18.946,14.026,23.607
			c5.654,4.451,7.789,6.532,7.789,10.753c0,4.221-2.136,6.302-7.789,10.754c-5.92,4.661-14.026,11.046-14.026,23.607
			c0,4.518,3.662,8.181,8.181,8.181c4.519,0,8.181-3.663,8.181-8.181c0-4.221,2.136-6.301,7.789-10.753
			c5.92-4.661,14.026-11.046,14.026-23.607S305.01,131.267,299.092,126.606z"/>
	</g>
</g>
</svg>