<?xml version="1.0" encoding="iso-8859-1"?>
<!-- Uploaded to: SVG Repo, www.svgrepo.com, Generator: SVG Repo Mixer Tools -->
<svg fill="#000000" height="800px" width="800px" version="1.1" id="Layer_1" xmlns="http://www.w3.org/2000/svg" xmlns:xlink="http://www.w3.org/1999/xlink" 
	 viewBox="0 0 511.998 511.998" xml:space="preserve">
<g>
	<g>
		<g>
			<path d="M395.103,374.772c3.603-14.459,5.424-29.416,5.424-44.637c0-6.622-0.353-13.259-1.054-19.839
				c26.433-4.256,46.69-27.23,46.69-54.846c0-30.631-24.92-55.552-55.552-55.552c-2.429,0-4.832,0.171-7.204,0.476
				c5.928-15.285,9.188-31.891,9.188-49.244c0-11.405-1.401-22.669-4.169-33.608c21.633-9.833,35.983-31.523,35.983-55.997
				C424.41,27.599,396.811,0,362.885,0c-20.418,0-39.312,10.167-50.667,26.615c-17.578-7.929-36.815-12.084-56.22-12.084
				c-19.407,0-38.646,4.155-56.224,12.084C188.419,10.167,169.526,0,149.108,0c-33.924,0-61.522,27.599-61.522,61.525
				c0,24.474,14.347,46.164,35.98,55.997c-2.769,10.936-4.169,22.2-4.169,33.608c0,17.354,3.261,33.959,9.188,49.244
				c-2.371-0.306-4.774-0.476-7.203-0.476c-30.632,0-55.553,24.921-55.553,55.552c0,27.615,20.256,50.59,46.691,54.846
				c-0.7,6.576-1.054,13.212-1.054,19.839c0,15.224,1.821,30.18,5.424,44.637c-0.001,0-0.003,0-0.005,0
				c-0.059,0.006-0.116,0.016-0.175,0.022c-1.062,0.111-2.116,0.244-3.165,0.403c-0.361,0.054-0.715,0.126-1.072,0.187
				c-0.74,0.125-1.483,0.249-2.216,0.397c-0.422,0.085-0.837,0.187-1.257,0.281c-0.661,0.146-1.323,0.291-1.977,0.458
				c-0.441,0.111-0.876,0.238-1.312,0.357c-0.624,0.172-1.247,0.342-1.864,0.531c-0.446,0.135-0.885,0.284-1.326,0.429
				c-0.598,0.196-1.195,0.394-1.787,0.606c-0.444,0.159-0.881,0.329-1.321,0.496c-0.579,0.221-1.155,0.446-1.726,0.682
				c-0.436,0.18-0.868,0.369-1.301,0.558c-0.562,0.246-1.123,0.498-1.677,0.76c-0.427,0.201-0.85,0.406-1.273,0.617
				c-0.548,0.272-1.09,0.55-1.63,0.836c-0.416,0.22-0.828,0.442-1.238,0.67c-0.536,0.298-1.065,0.605-1.592,0.916
				c-0.4,0.237-0.798,0.474-1.194,0.718c-0.525,0.325-1.043,0.661-1.559,1.001c-0.381,0.251-0.763,0.499-1.139,0.757
				c-0.517,0.356-1.027,0.723-1.534,1.092c-0.359,0.261-0.72,0.519-1.074,0.787c-0.515,0.389-1.019,0.793-1.523,1.197
				c-0.332,0.266-0.667,0.527-0.994,0.799c-0.523,0.436-1.034,0.886-1.544,1.338c-0.291,0.257-0.588,0.507-0.874,0.768
				c-0.57,0.522-1.124,1.059-1.677,1.599c-0.211,0.207-0.43,0.405-0.64,0.615c-1.515,1.519-2.959,3.107-4.329,4.761
				c-0.201,0.241-0.387,0.492-0.583,0.735c-0.474,0.589-0.947,1.178-1.402,1.784c-0.24,0.319-0.467,0.646-0.702,0.971
				c-0.394,0.543-0.788,1.086-1.167,1.641c-0.245,0.359-0.479,0.729-0.719,1.093c-0.348,0.532-0.697,1.065-1.032,1.607
				c-0.24,0.388-0.467,0.784-0.698,1.177c-0.315,0.533-0.627,1.068-0.927,1.61c-0.227,0.411-0.444,0.826-0.662,1.241
				c-0.284,0.539-0.564,1.078-0.833,1.625c-0.211,0.429-0.415,0.862-0.619,1.295c-0.254,0.547-0.505,1.096-0.746,1.65
				c-0.194,0.443-0.381,0.89-0.564,1.338c-0.229,0.557-0.45,1.118-0.665,1.683c-0.173,0.455-0.341,0.911-0.507,1.372
				c-0.202,0.57-0.395,1.143-0.584,1.721c-0.151,0.464-0.301,0.929-0.443,1.397c-0.176,0.585-0.34,1.174-0.502,1.764
				c-0.128,0.47-0.257,0.94-0.377,1.414c-0.151,0.602-0.287,1.211-0.421,1.819c-0.105,0.471-0.212,0.943-0.308,1.419
				c-0.124,0.627-0.232,1.261-0.338,1.893c-0.078,0.465-0.164,0.928-0.235,1.396c-0.099,0.667-0.177,1.34-0.256,2.013
				c-0.052,0.443-0.114,0.882-0.158,1.327c-0.074,0.747-0.123,1.5-0.172,2.253c-0.025,0.379-0.063,0.754-0.081,1.135
				c-0.057,1.136-0.086,2.279-0.086,3.427c0,2.371,0.12,4.714,0.355,7.023c3.53,34.645,32.873,61.767,68.434,61.767
				c0.001,0,0.002,0,0.002,0c0.002,0,0.004,0,0.005,0c1.066,0,2.126-0.033,3.18-0.081c0.26-0.012,0.517-0.027,0.777-0.041
				c0.965-0.054,1.929-0.127,2.884-0.221c0.079-0.007,0.158-0.013,0.238-0.021c23.887-2.425,44.466-16.995,54.764-38.212
				c21.4,13.525,45.423,20.609,70.249,20.609c24.821,0,48.845-7.085,70.248-20.61c11.301,23.29,34.99,38.577,61.847,38.577
				c37.932,0,68.79-30.859,68.79-68.79C456.883,407.643,429.754,378.294,395.103,374.772z M108.92,61.525
				c0-22.161,18.028-40.19,40.188-40.19c15.789,0,30.181,9.305,36.667,23.705c1.222,2.713,3.52,4.792,6.341,5.736
				c2.823,0.944,5.91,0.667,8.517-0.764c16.864-9.254,36.01-14.145,55.365-14.145c19.355,0,38.498,4.891,55.362,14.145
				c2.609,1.43,5.695,1.709,8.516,0.764c2.821-0.944,5.12-3.023,6.342-5.735c6.488-14.401,20.88-23.706,36.669-23.706
				c22.16,0,40.19,18.029,40.19,40.19c0,18.449-12.474,34.474-30.336,38.972c-2.885,0.726-5.336,2.625-6.761,5.237
				c-1.425,2.611-1.694,5.7-0.742,8.519c3.997,11.847,6.024,24.254,6.024,36.878c0,63.558-51.707,115.265-115.263,115.265
				c-63.558,0-115.267-51.707-115.267-115.265c0-12.445,1.978-24.673,5.861-36.36c0.067-0.167,0.135-0.333,0.194-0.506
				c2.468-7.311,5.687-14.4,9.563-21.068c2.96-5.094,1.231-11.623-3.86-14.583c-5.095-2.96-11.623-1.232-14.584,3.862
				c-2.752,4.736-5.219,9.653-7.388,14.696C117.459,90.379,108.92,76.784,108.92,61.525z M317.554,302.603
				c0,24.347-6.79,47.111-19.12,64.1c-11.581,15.956-26.651,24.745-42.435,24.745c-15.786,0-30.858-8.788-42.44-24.745
				c-12.33-16.988-19.12-39.752-19.12-64.099c0-9.656,1.084-19.021,3.179-27.994c17.713,8.408,37.505,13.121,58.381,13.121
				c20.874,0,40.665-4.713,58.377-13.121C316.47,283.582,317.554,292.947,317.554,302.603z M169.904,454.869
				c-0.033,0.132-0.068,0.262-0.102,0.394c-4.739,18.037-19.853,31.913-38.553,34.832c-0.102,0.016-0.206,0.031-0.308,0.046
				c-0.617,0.092-1.236,0.169-1.859,0.237c-0.191,0.02-0.38,0.043-0.572,0.061c-0.564,0.054-1.134,0.095-1.705,0.13
				c-0.206,0.013-0.413,0.03-0.619,0.039c-0.754,0.036-1.512,0.058-2.275,0.058c-0.003,0-0.006,0-0.011,0
				c-22.897-0.001-42.059-16.3-46.492-37.904c-0.633-3.086-0.964-6.281-0.964-9.551s0.333-6.465,0.964-9.553
				c4.433-21.604,23.595-37.904,46.492-37.905c0.912,0,1.832,0.033,2.75,0.085c0.277,0.016,0.553,0.043,0.829,0.064
				c0.628,0.047,1.255,0.104,1.879,0.175c23.604,2.717,41.998,22.812,41.998,47.133C171.357,447.232,170.85,451.137,169.904,454.869
				z M388.093,490.665c-22.104,0-41.091-14.998-46.177-36.474c-0.117-0.5-0.279-0.982-0.465-1.453
				c-0.644-3.135-0.989-6.331-0.989-9.529c0-5.185,0.844-10.307,2.507-15.22c1.889-5.58-1.102-11.636-6.682-13.525
				c-5.579-1.889-11.636,1.102-13.526,6.682c-2.412,7.123-3.634,14.545-3.634,22.063c0,2.975,0.213,5.948,0.598,8.899
				c-19.203,13.48-41.1,20.591-63.728,20.591c-22.695,0-44.651-7.148-63.887-20.699c0.369-2.881,0.58-5.81,0.58-8.79
				c0-32.606-22.81-59.966-53.304-67.013c-4.371-14.787-6.588-30.251-6.588-46.062c0-9.437,0.809-18.893,2.402-28.102
				c0.56-3.236-0.401-6.55-2.606-8.983c-2.206-2.433-5.415-3.715-8.684-3.474c-0.84,0.062-1.692,0.093-2.529,0.093
				c-18.868,0-34.218-15.35-34.218-34.217c0-18.867,15.351-34.217,34.218-34.217c8.921,0,17.328,3.406,23.739,9.589
				c9.155,12.7,20.434,23.769,33.314,32.687c-3.537,12.443-5.332,25.556-5.332,39.094c0,28.813,8.236,56.028,23.189,76.63
				c15.702,21.633,36.907,33.547,59.706,33.547c22.797,0,44-11.914,59.703-33.547c14.953-20.603,23.187-47.817,23.187-76.63
				c0-13.539-1.792-26.651-5.329-39.094c12.88-8.917,24.159-19.985,33.313-32.686c6.41-6.183,14.817-9.59,23.739-9.59
				c18.868,0,34.217,15.35,34.217,34.217s-15.35,34.217-34.217,34.217c-0.841,0-1.691-0.031-2.528-0.093
				c-3.271-0.242-6.478,1.041-8.684,3.473c-2.206,2.433-3.169,5.746-2.608,8.982c1.594,9.222,2.402,18.677,2.402,28.104
				c0,17.925-2.846,35.412-8.459,51.976c-1.179,3.478-0.485,7.317,1.835,10.163c2.32,2.846,5.938,4.3,9.585,3.847
				c1.965-0.244,3.963-0.368,5.94-0.368c26.168,0,47.456,21.29,47.456,47.458C435.549,469.377,414.261,490.665,388.093,490.665z"/>
			<path d="M211.966,145.7c8.813,0,16-7.188,16-16.001c0-8.81-7.187-15.998-16-15.998c-8.813,0-16,7.188-16,15.998
				C195.966,138.512,203.153,145.7,211.966,145.7z"/>
			<path d="M300.03,145.7c8.813,0,16.001-7.188,16.001-16.001c0-8.81-7.188-15.998-16.001-15.998s-16.001,7.188-16.001,15.998
				C284.029,138.512,291.216,145.7,300.03,145.7z"/>
			<path d="M255.998,186.917c8.813,0,16-7.185,16-15.998c0-8.813-7.187-16.001-16-16.001c-8.813,0-16.001,7.188-16.001,16.001
				C239.998,179.732,247.185,186.917,255.998,186.917z"/>
			<path d="M343.874,390.365l-0.192,0.163c-4.557,3.735-5.224,10.456-1.488,15.012c2.109,2.573,5.169,3.905,8.255,3.905
				c2.378,0,4.773-0.793,6.756-2.418l0.371-0.311c4.515-3.784,5.109-10.512,1.325-15.027
				C355.118,387.176,348.389,386.581,343.874,390.365z"/>
			<path d="M164.885,74.863c2.811,0,5.617-1.104,7.712-3.295l0.174-0.186c4.048-4.281,3.859-11.032-0.421-15.08
				c-4.281-4.047-11.033-3.859-15.08,0.421c-0.012,0.013-0.089,0.094-0.117,0.126c-4.048,4.259-3.888,10.994,0.363,15.057
				C159.582,73.881,162.235,74.863,164.885,74.863z"/>
		</g>
	</g>
</g>
</svg>