<?xml version="1.0" encoding="iso-8859-1"?>
<!-- Uploaded to: SVG Repo, www.svgrepo.com, Generator: SVG Repo Mixer Tools -->
<svg height="800px" width="800px" version="1.1" id="Layer_1" xmlns="http://www.w3.org/2000/svg" xmlns:xlink="http://www.w3.org/1999/xlink" 
	 viewBox="0 0 512 512" xml:space="preserve">
<g>
	<g>
		<path d="M495.304,278.261h-12.298c28.926-49.822,22.934-115.344-19.297-159.181l33.371-33.467
			c18.625-17.894,20.565-50.378,0.124-70.815c-19.572-19.575-51.155-19.539-70.676-0.02L382.73,58.444
			C351.16,21.537,305.096,0,256,0c-59.152,0-113.435,31.162-143.533,81.853C54.171,96.253,11.13,149.069,11.13,211.478
			c0,23.85,6.209,46.707,17.863,66.783H16.696C7.475,278.261,0,285.736,0,294.957s7.475,16.696,16.696,16.696h19.248l26.416,158.494
			C66.402,494.398,87.179,512,111.765,512h288.471c24.585,0,45.363-17.602,49.406-41.854l26.415-158.494h19.248
			c9.22,0,16.696-7.475,16.696-16.696S504.525,278.261,495.304,278.261z M392.825,95.531c0.029-0.029,0.057-0.057,0.086-0.086
			l57.211-57.038c6.507-6.508,16.961-6.51,23.471,0.001c7.085,7.083,5.634,18.108,0.306,23.17c-0.109,0.104-0.217,0.209-0.324,0.316
			l-98.105,98.389c-5.773-9.718-13.169-18.399-21.87-25.646L392.825,95.531z M416.703,464.658
			c-1.347,8.084-8.273,13.951-16.469,13.951h-288.47c-8.195,0-15.121-5.867-16.469-13.951l-14.37-86.223h350.148L416.703,464.658z
			 M436.639,345.043H75.361l-5.565-33.391h372.409L436.639,345.043z M441.907,278.261H70.093
			c-16.539-18.405-25.571-41.875-25.571-66.783c0-71.938,73.853-119.933,139.161-92.309c8.495,3.592,18.291-0.385,21.88-8.873
			c3.593-8.493-0.381-18.29-8.873-21.881c-12.974-5.487-26.699-8.81-40.583-9.988C181.158,50.108,217.278,33.391,256,33.391
			c40.109,0,77.695,17.996,102.994,48.718l-35.389,35.282c-10.909-3.998-22.538-6.087-34.214-6.087
			c-9.22,0-16.696,7.475-16.696,16.696s7.475,16.696,16.696,16.696c10.681,0,20.861,2.475,30.257,7.357
			c0.028,0.014,0.057,0.023,0.085,0.038c0.029,0.014,0.055,0.033,0.082,0.048c16.707,8.442,29.072,23.656,33.923,41.738
			c0.015,0.055,0.035,0.108,0.049,0.163c0.009,0.032,0.013,0.066,0.022,0.098c1.569,5.488,2.364,11.322,2.364,17.341
			c0,9.22,7.475,16.696,16.696,16.696s16.696-7.475,16.696-16.696c0-5.642-0.472-11.205-1.402-16.633l51.959-52.109
			C475.726,180.241,476.893,239.324,441.907,278.261z"/>
	</g>
</g>
</svg>