<?xml version="1.0" encoding="UTF-8" standalone="no"?>
<svg
   viewBox="0 0 24 24"
   version="1.1"
   id="svg1"
   sodipodi:docname="half-coffee-bean.svg"
   inkscape:version="1.3.2 (091e20e, 2023-11-25, custom)"
   xmlns:inkscape="http://www.inkscape.org/namespaces/inkscape"
   xmlns:sodipodi="http://sodipodi.sourceforge.net/DTD/sodipodi-0.dtd"
   xmlns="http://www.w3.org/2000/svg"
   xmlns:svg="http://www.w3.org/2000/svg">
  <defs
     id="defs1" />
  <sodipodi:namedview
     id="namedview1"
     pagecolor="#ffffff"
     bordercolor="#000000"
     borderopacity="0.25"
     inkscape:showpageshadow="2"
     inkscape:pageopacity="0.0"
     inkscape:pagecheckerboard="0"
     inkscape:deskcolor="#d1d1d1"
     inkscape:zoom="32.791667"
     inkscape:cx="11.984752"
     inkscape:cy="12"
     inkscape:window-width="1902"
     inkscape:window-height="983"
     inkscape:window-x="129"
     inkscape:window-y="37"
     inkscape:window-maximized="0"
     inkscape:current-layer="svg1" />
  <path
     d="m19.151 4.868a6.744 6.744 0 0 0 -5.96-1.69 12.009 12.009 0 0 0 -6.54 3.47 11.988 11.988 0 0 0 -3.48 6.55 6.744 6.744 0 0 0 1.69 5.95 6.406 6.406 0 0 0 4.63 1.78 11.511 11.511 0 0 0 7.87-3.56c3.939-3.94 4.739-9.55 1.79-12.5zm-14.99 8.48a11.041 11.041 0 0 1 3.19-5.99 10.976 10.976 0 0 1 5.99-3.19 8.016 8.016 0 0 1 1.18-.09 5.412 5.412 0 0 1 3.92 1.49.689.689 0 0 1 .11.13 6.542 6.542 0 0 1 -2.12 1.23 7.666 7.666 0 0 0 -2.96 1.93 7.666 7.666 0 0 0 -1.93 2.96 6.589 6.589 0 0 1 -1.71 2.63 6.7 6.7 0 0 1 -2.63 1.71 7.478 7.478 0 0 0 -2.35 1.36 6.18 6.18 0 0 1 -.69-4.17zm12.49 3.31c-3.55 3.55-8.52 4.35-11.08 1.79a1.538 1.538 0 0 1 -.12-.13 6.677 6.677 0 0 1 2.13-1.23 7.862 7.862 0 0 0 2.96-1.93 7.738 7.738 0 0 0 1.93-2.96 6.589 6.589 0 0 1 1.71-2.63 6.589 6.589 0 0 1 2.63-1.71 7.6 7.6 0 0 0 2.34-1.37c1.64 2.712.67 7-2.5 10.17z"
     id="path1" />
  <path
     style="fill:#ffffff;fill-opacity:0.784314;stroke-width:0.0304956"
     d="M 4.6861998,17.158816 C 4.1316122,15.990915 3.9494997,14.690991 4.1642735,13.433291 4.4764345,11.6053 5.2694225,9.8556189 6.4682144,8.349783 6.7779228,7.9607494 7.9666719,6.7715379 8.349783,6.4674824 9.7920915,5.3227962 11.357354,4.5889289 13.128335,4.2270771 c 0.736041,-0.1503898 1.955877,-0.1674227 2.603667,-0.036356 0.682453,0.1380805 1.345837,0.4075885 1.904341,0.7736619 0.308093,0.2019402 0.845409,0.6358911 0.866793,0.7000452 0.03018,0.090532 -0.809244,0.6692924 -1.360156,0.9377934 -0.203735,0.099295 -0.507656,0.2310347 -0.675382,0.2927549 -0.901003,0.3315543 -1.677665,0.7745175 -2.363405,1.3479498 -0.402957,0.3369624 -1.191435,1.1520914 -1.457589,1.5068566 -0.450746,0.6008141 -0.865542,1.3596841 -1.104946,2.0215001 -0.376995,1.04218 -0.961402,1.931651 -1.8063898,2.749338 -0.7993869,0.773561 -1.5764447,1.268381 -2.5535655,1.626079 -0.7067456,0.258721 -1.6016891,0.753306 -2.1041932,1.162869 -0.092249,0.07519 -0.1829225,0.145963 -0.2014966,0.15728 -0.021139,0.01288 -0.09214,-0.102343 -0.1898131,-0.308033 z"
     id="path2" />
  <path
     style="fill:#ffffff;fill-opacity:0.784314;stroke-width:0.0304956"
     d="M 4.6890606,17.160485 C 4.421501,16.589424 4.2672538,16.111006 4.1559552,15.506989 4.0599869,14.986168 4.0614327,14.002531 4.1589808,13.448539 4.4890694,11.57391 5.2644661,9.8618449 6.4682144,8.349783 6.7912911,7.9439573 7.9735029,6.7653493 8.386277,6.4375672 9.7853645,5.3265582 11.37589,4.5851417 13.128335,4.2270771 c 0.736041,-0.1503898 1.955877,-0.1674227 2.603667,-0.036356 0.682453,0.1380805 1.345837,0.4075885 1.904341,0.7736619 0.308093,0.2019402 0.845409,0.6358911 0.866793,0.7000452 0.01658,0.049753 -0.192509,0.2213068 -0.617494,0.5066298 -0.42367,0.28444 -0.836944,0.4987274 -1.326557,0.6878353 -1.344874,0.5194435 -2.051643,0.9652781 -2.999973,1.8924042 -0.536911,0.5249062 -0.886024,0.9355526 -1.212635,1.4263685 -0.267179,0.401506 -0.6527,1.171347 -0.836228,1.669856 -0.373619,1.014842 -0.934967,1.860225 -1.7749808,2.673099 -0.8018007,0.775896 -1.57474,1.268407 -2.5535655,1.62711 -0.7151323,0.262069 -1.5487394,0.720668 -2.0736976,1.14082 -0.1090216,0.08726 -0.2134181,0.167698 -0.2319922,0.17876 -0.021022,0.01252 -0.0916,-0.103314 -0.1869523,-0.306826 z"
     id="path3" />
  <path
     style="fill:#c87137;fill-opacity:0.784314;stroke-width:0.0304956"
     d="M 4.6890606,17.160485 C 4.421501,16.589424 4.2672538,16.111006 4.1559552,15.506989 4.0599869,14.986168 4.0614327,14.002531 4.1589808,13.448539 4.4893599,11.572261 5.263407,9.8631751 6.4682144,8.349783 6.791549,7.9436331 7.9737926,6.7650851 8.386277,6.4377157 9.9344996,5.2089646 11.886327,4.3586289 13.64676,4.145927 c 0.479566,-0.057943 1.417814,-0.056474 1.825819,0.00286 0.78728,0.1144867 1.52375,0.3938268 2.184346,0.8285122 0.292605,0.19254 0.821753,0.6221612 0.846852,0.6875688 0.01715,0.044682 -0.275681,0.2836445 -0.674007,0.5500257 -0.325936,0.2179705 -1.010874,0.5570162 -1.43841,0.7120166 -0.76026,0.2756267 -1.640177,0.7825579 -2.279733,1.3133833 -0.406397,0.3373049 -1.157171,1.1120759 -1.45197,1.4983783 -0.460627,0.6036021 -0.866596,1.3490791 -1.14843,2.1088521 -0.380483,1.025716 -0.934964,1.858588 -1.7868064,2.683922 -0.7461941,0.722973 -1.4781966,1.203323 -2.3444968,1.538491 -1.0376147,0.401449 -1.6798229,0.746009 -2.2719187,1.218937 -0.1090216,0.08708 -0.2134181,0.167377 -0.2319922,0.178439 -0.021022,0.01252 -0.0916,-0.103314 -0.1869523,-0.306826 z"
     id="path4" />
  <path
     style="fill:#d38d5f;fill-opacity:0.784314;stroke-width:0.0304956"
     d="M 4.7612508,17.268107 C 4.2545956,16.263339 4.0478655,15.231515 4.1181831,14.05845 4.2196056,12.366483 5.0566954,10.255784 6.2635246,8.649031 6.7837611,7.9563964 7.9712048,6.7682338 8.6454892,6.2656243 10.076769,5.1987524 11.663958,4.5030092 13.34921,4.2037506 c 0.338066,-0.060032 0.494916,-0.069201 1.197169,-0.069982 0.722687,-8.035e-4 0.844676,0.00647 1.153762,0.068765 0.91414,0.1842489 1.678915,0.5465516 2.431603,1.1519416 0.365058,0.2936168 0.371871,0.3023255 0.299402,0.3826947 -0.109005,0.1208897 -0.668055,0.5082184 -0.972442,0.6737405 -0.348575,0.1895512 -0.803829,0.3999841 -1.158831,0.5356486 -0.739306,0.2825272 -1.528561,0.7415621 -2.180432,1.2681517 -0.290884,0.2349801 -1.009588,0.9579177 -1.307447,1.3151493 -0.493165,0.59147 -0.935285,1.36431 -1.300452,2.273236 -0.43127,1.073459 -0.843672,1.723086 -1.5848151,2.496443 -0.8137299,0.849097 -1.600101,1.374385 -2.7450242,1.833647 -0.8658519,0.347319 -1.4246197,0.647932 -1.9761679,1.063163 -0.1805268,0.135909 -0.3344481,0.247107 -0.3420472,0.247107 -0.0076,0 -0.053606,-0.07891 -0.1022368,-0.175349 z"
     id="path5" />
</svg>
