<svg width="33" height="33" viewBox="0 0 33 33" fill="none" xmlns="http://www.w3.org/2000/svg">
<path d="M31.4408 13.8507L17.0033 1.47573C16.8692 1.36023 16.6928 1.2901 16.5 1.2901C16.3072 1.2901 16.1308 1.36023 15.9957 1.47676L15.9967 1.47573L1.55925 13.8507C1.39322 13.993 1.28906 14.2034 1.28906 14.4375V30.9375C1.28906 31.3644 1.63556 31.7109 2.0625 31.7109H30.9375C31.3644 31.7109 31.7109 31.3644 31.7109 30.9375V14.4375C31.7109 14.2034 31.6058 13.993 31.4408 13.8507ZM12.1172 30.1641V24.75C12.1172 22.3297 14.0797 20.3672 16.5 20.3672C18.9203 20.3672 20.8828 22.3297 20.8828 24.75V30.1641H12.1172ZM30.1641 30.1641H22.4297V24.75C22.4297 21.4748 19.7752 18.8203 16.5 18.8203C13.2247 18.8203 10.5703 21.4748 10.5703 24.75V30.1641H2.83594V14.7933L16.5 3.08241L30.1641 14.7933V30.1641Z" fill="black"/>
</svg>
