<?xml version="1.0" encoding="iso-8859-1"?>
<!-- Uploaded to: SVG Repo, www.svgrepo.com, Generator: SVG Repo Mixer Tools -->
<!DOCTYPE svg PUBLIC "-//W3C//DTD SVG 1.1//EN" "http://www.w3.org/Graphics/SVG/1.1/DTD/svg11.dtd">
<svg version="1.1" id="Capa_1" xmlns="http://www.w3.org/2000/svg" xmlns:xlink="http://www.w3.org/1999/xlink" 
	 width="800px" height="800px" viewBox="0 0 970.721 970.721"
	 xml:space="preserve">
<g>
	<g>
		<path d="M960.721,923.122h-29.357V728.528c0-4.924-3.99-8.914-8.914-8.914H671.363V325.528c0-4.971-4.029-9-9-9H308.357
			c-4.971,0-9,4.029-9,9v393.919l-251.079,0.167c-4.923,0-8.914,3.99-8.914,8.914v194.594H10c-5.523,0-10,4.479-10,10v26.984
			c0,5.521,4.477,10,10,10h950.721c5.523,0,10-4.479,10-10v-26.984C970.721,927.6,966.244,923.122,960.721,923.122z
			 M575.984,355.528c0-4.924,3.99-8.914,8.914-8.914h34.172c4.924,0,8.914,3.99,8.914,8.914v8.839c0,4.923-3.99,8.914-8.914,8.914
			h-34.172c-4.924,0-8.914-3.991-8.914-8.914V355.528z M575.984,404.195c0-4.923,3.99-8.914,8.914-8.914h34.172
			c4.924,0,8.914,3.991,8.914,8.914v8.838c0,4.923-3.99,8.914-8.914,8.914h-34.172c-4.924,0-8.914-3.991-8.914-8.914V404.195z
			 M575.984,452.861c0-4.923,3.99-8.914,8.914-8.914h34.172c4.924,0,8.914,3.991,8.914,8.914v8.839c0,4.923-3.99,8.914-8.914,8.914
			h-34.172c-4.924,0-8.914-3.991-8.914-8.914V452.861z M575.984,503.528c0-4.924,3.99-8.914,8.914-8.914h34.172
			c4.924,0,8.914,3.99,8.914,8.914v8.839c0,4.923-3.99,8.914-8.914,8.914h-34.172c-4.924,0-8.914-3.991-8.914-8.914V503.528z
			 M575.984,552.195c0-4.923,3.99-8.914,8.914-8.914h34.172c4.924,0,8.914,3.991,8.914,8.914v8.838c0,4.923-3.99,8.914-8.914,8.914
			h-34.172c-4.924,0-8.914-3.991-8.914-8.914V552.195z M575.984,600.861c0-4.923,3.99-8.914,8.914-8.914h34.172
			c4.924,0,8.914,3.991,8.914,8.914v8.839c0,4.923-3.99,8.914-8.914,8.914h-34.172c-4.924,0-8.914-3.991-8.914-8.914V600.861z
			 M497.984,355.528c0-4.924,3.99-8.914,8.914-8.914h34.172c4.924,0,8.914,3.99,8.914,8.914v8.839c0,4.923-3.99,8.914-8.914,8.914
			h-34.172c-4.924,0-8.914-3.991-8.914-8.914V355.528z M497.984,404.195c0-4.923,3.99-8.914,8.914-8.914h34.172
			c4.924,0,8.914,3.991,8.914,8.914v8.838c0,4.923-3.99,8.914-8.914,8.914h-34.172c-4.924,0-8.914-3.991-8.914-8.914V404.195z
			 M497.984,452.861c0-4.923,3.99-8.914,8.914-8.914h34.172c4.924,0,8.914,3.991,8.914,8.914v8.839c0,4.923-3.99,8.914-8.914,8.914
			h-34.172c-4.924,0-8.914-3.991-8.914-8.914V452.861z M497.984,503.528c0-4.924,3.99-8.914,8.914-8.914h34.172
			c4.924,0,8.914,3.99,8.914,8.914v8.839c0,4.923-3.99,8.914-8.914,8.914h-34.172c-4.924,0-8.914-3.991-8.914-8.914V503.528z
			 M497.984,552.195c0-4.923,3.99-8.914,8.914-8.914h34.172c4.924,0,8.914,3.991,8.914,8.914v8.838c0,4.923-3.99,8.914-8.914,8.914
			h-34.172c-4.924,0-8.914-3.991-8.914-8.914V552.195z M419.984,355.528c0-4.924,3.991-8.914,8.914-8.914h34.173
			c4.923,0,8.914,3.99,8.914,8.914v8.839c0,4.923-3.991,8.914-8.914,8.914h-34.173c-4.923,0-8.914-3.991-8.914-8.914V355.528z
			 M511.449,719.614h-54.172c-4.923,0-8.914-3.991-8.914-8.914v-41.172c0-4.924,3.991-8.914,8.914-8.914h54.172
			c4.924,0,8.914,3.99,8.914,8.914V710.7C520.363,715.623,516.373,719.614,511.449,719.614z M520.359,760.195V783.7
			c0,4.923-3.99,8.914-8.914,8.914h-52.171c-4.923,0-8.914-3.991-8.914-8.914v-23.505c0-4.923,3.991-8.914,8.914-8.914h52.173
			C516.369,751.281,520.359,755.272,520.359,760.195z M419.984,404.195c0-4.923,3.991-8.914,8.914-8.914h34.173
			c4.923,0,8.914,3.991,8.914,8.914v8.838c0,4.923-3.991,8.914-8.914,8.914h-34.173c-4.923,0-8.914-3.991-8.914-8.914V404.195z
			 M419.984,452.861c0-4.923,3.991-8.914,8.914-8.914h34.173c4.923,0,8.914,3.991,8.914,8.914v8.839
			c0,4.923-3.991,8.914-8.914,8.914h-34.173c-4.923,0-8.914-3.991-8.914-8.914V452.861z M419.984,503.528
			c0-4.924,3.991-8.914,8.914-8.914h34.173c4.923,0,8.914,3.99,8.914,8.914v8.839c0,4.923-3.991,8.914-8.914,8.914h-34.173
			c-4.923,0-8.914-3.991-8.914-8.914V503.528z M419.984,552.195c0-4.923,3.991-8.914,8.914-8.914h34.173
			c4.923,0,8.914,3.991,8.914,8.914v8.838c0,4.923-3.991,8.914-8.914,8.914h-34.173c-4.923,0-8.914-3.991-8.914-8.914V552.195z
			 M341.984,355.528c0-4.924,3.991-8.914,8.914-8.914h34.173c4.923,0,8.914,3.99,8.914,8.914v8.839c0,4.923-3.991,8.914-8.914,8.914
			h-34.173c-4.923,0-8.914-3.991-8.914-8.914V355.528z M341.984,404.195c0-4.923,3.991-8.914,8.914-8.914h34.173
			c4.923,0,8.914,3.991,8.914,8.914v8.838c0,4.923-3.991,8.914-8.914,8.914h-34.173c-4.923,0-8.914-3.991-8.914-8.914V404.195z
			 M341.984,452.861c0-4.923,3.991-8.914,8.914-8.914h34.173c4.923,0,8.914,3.991,8.914,8.914v8.839
			c0,4.923-3.991,8.914-8.914,8.914h-34.173c-4.923,0-8.914-3.991-8.914-8.914V452.861z M341.984,503.528
			c0-4.924,3.991-8.914,8.914-8.914h34.173c4.923,0,8.914,3.99,8.914,8.914v8.839c0,4.923-3.991,8.914-8.914,8.914h-34.173
			c-4.923,0-8.914-3.991-8.914-8.914V503.528z M341.984,552.195c0-4.923,3.991-8.914,8.914-8.914h34.173
			c4.923,0,8.914,3.991,8.914,8.914v8.838c0,4.923-3.991,8.914-8.914,8.914h-34.173c-4.923,0-8.914-3.991-8.914-8.914V552.195z
			 M341.984,600.861c0-4.923,3.991-8.914,8.914-8.914h34.173c4.923,0,8.914,3.991,8.914,8.914v8.839
			c0,4.923-3.991,8.914-8.914,8.914h-34.173c-4.923,0-8.914-3.991-8.914-8.914V600.861z M141.694,849.367
			c0,4.923-3.991,8.914-8.914,8.914H80.607c-4.923,0-8.914-3.991-8.914-8.914v-23.506c0-4.923,3.991-8.914,8.914-8.914h52.173
			c4.923,0,8.914,3.991,8.914,8.914V849.367z M141.694,783.7c0,4.923-3.991,8.914-8.914,8.914H80.607
			c-4.923,0-8.914-3.991-8.914-8.914v-23.505c0-4.923,3.991-8.914,8.914-8.914h52.173c4.923,0,8.914,3.991,8.914,8.914V783.7z
			 M236.36,849.367c0,4.923-3.991,8.914-8.914,8.914h-52.172c-4.923,0-8.914-3.991-8.914-8.914v-23.506
			c0-4.923,3.991-8.914,8.914-8.914h52.173c4.923,0,8.914,3.991,8.914,8.914L236.36,849.367L236.36,849.367z M236.36,783.7
			c0,4.923-3.991,8.914-8.914,8.914h-52.172c-4.923,0-8.914-3.991-8.914-8.914v-23.505c0-4.923,3.991-8.914,8.914-8.914h52.173
			c4.923,0,8.914,3.991,8.914,8.914L236.36,783.7L236.36,783.7z M331.027,849.367c0,4.923-3.991,8.914-8.914,8.914H269.94
			c-4.923,0-8.914-3.991-8.914-8.914v-23.506c0-4.923,3.991-8.914,8.914-8.914h52.173c4.923,0,8.914,3.991,8.914,8.914V849.367z
			 M331.027,783.7c0,4.923-3.991,8.914-8.914,8.914H269.94c-4.923,0-8.914-3.991-8.914-8.914v-23.505
			c0-4.923,3.991-8.914,8.914-8.914h52.173c4.923,0,8.914,3.991,8.914,8.914V783.7z M325.864,710.7v-41.172
			c0-4.924,3.991-8.914,8.914-8.914h54.173c4.923,0,8.914,3.99,8.914,8.914V710.7c0,4.923-3.991,8.914-8.914,8.914h-54.173
			C329.855,719.614,325.864,715.623,325.864,710.7z M405.694,849.367c0,4.923-3.991,8.914-8.914,8.914h-32.173
			c-4.923,0-8.914-3.991-8.914-8.914v-23.506c0-4.923,3.991-8.914,8.914-8.914h32.173c4.923,0,8.914,3.991,8.914,8.914V849.367z
			 M425.694,783.7c0,4.923-3.991,8.914-8.914,8.914h-52.173c-4.923,0-8.914-3.991-8.914-8.914v-23.505
			c0-4.923,3.991-8.914,8.914-8.914h52.173c4.923,0,8.914,3.991,8.914,8.914V783.7z M419.984,609.7v-8.839
			c0-4.923,3.991-8.914,8.914-8.914h34.173c4.923,0,8.914,3.991,8.914,8.914v8.839c0,4.923-3.991,8.914-8.914,8.914h-34.173
			C423.975,618.614,419.984,614.623,419.984,609.7z M535.363,914.208c0,4.923-3.99,8.914-8.914,8.914H444.27
			c-4.923,0-8.914-3.991-8.914-8.914v-88.347c0-4.923,3.991-8.914,8.914-8.914h82.179c4.924,0,8.914,3.991,8.914,8.914V914.208z
			 M506.898,618.614c-4.924,0-8.914-3.991-8.914-8.914v-8.839c0-4.923,3.99-8.914,8.914-8.914h34.172
			c4.924,0,8.914,3.991,8.914,8.914v8.839c0,4.923-3.99,8.914-8.914,8.914H506.898z M615.027,849.367
			c0,4.923-3.992,8.914-8.914,8.914h-32.174c-4.922,0-8.914-3.991-8.914-8.914v-23.506c0-4.923,3.992-8.914,8.914-8.914h32.174
			c4.922,0,8.914,3.991,8.914,8.914V849.367z M615.027,783.7c0,4.923-3.992,8.914-8.914,8.914h-52.174
			c-4.922,0-8.914-3.991-8.914-8.914v-23.505c0-4.923,3.992-8.914,8.914-8.914h52.174c4.922,0,8.914,3.991,8.914,8.914V783.7z
			 M579.777,719.614c-4.922,0-8.914-3.991-8.914-8.914v-41.172c0-4.924,3.992-8.914,8.914-8.914h54.174
			c4.922,0,8.914,3.99,8.914,8.914V710.7c0,4.923-3.992,8.914-8.914,8.914H579.777z M709.693,849.367
			c0,4.923-3.99,8.914-8.914,8.914h-52.172c-4.924,0-8.914-3.991-8.914-8.914v-23.506c0-4.923,3.99-8.914,8.914-8.914h52.172
			c4.924,0,8.914,3.991,8.914,8.914V849.367z M709.693,783.7c0,4.923-3.99,8.914-8.914,8.914h-52.172
			c-4.924,0-8.914-3.991-8.914-8.914v-23.505c0-4.923,3.99-8.914,8.914-8.914h52.172c4.924,0,8.914,3.991,8.914,8.914V783.7z
			 M804.359,849.367c0,4.923-3.99,8.914-8.914,8.914h-52.172c-4.922,0-8.914-3.991-8.914-8.914v-23.506
			c0-4.923,3.992-8.914,8.914-8.914h52.174c4.922,0,8.914,3.991,8.914,8.914v23.506H804.359z M804.359,783.7
			c0,4.923-3.99,8.914-8.914,8.914h-52.172c-4.922,0-8.914-3.991-8.914-8.914v-23.505c0-4.923,3.992-8.914,8.914-8.914h52.174
			c4.922,0,8.914,3.991,8.914,8.914V783.7H804.359z M899.027,849.367c0,4.923-3.992,8.914-8.914,8.914h-52.174
			c-4.922,0-8.914-3.991-8.914-8.914v-23.506c0-4.923,3.992-8.914,8.914-8.914h52.174c4.922,0,8.914,3.991,8.914,8.914V849.367z
			 M899.027,783.7c0,4.923-3.992,8.914-8.914,8.914h-52.174c-4.922,0-8.914-3.991-8.914-8.914v-23.505
			c0-4.923,3.992-8.914,8.914-8.914h52.174c4.922,0,8.914,3.991,8.914,8.914V783.7z"/>
		<path d="M310.639,300.614h349.449c4.311,0,6.602-5.087,3.744-8.313L496.605,103.318c-1.441-1.63-2.238-3.73-2.238-5.907V9.528
			c0-4.924-3.99-8.914-8.914-8.914h-0.18c-4.923,0-8.914,3.99-8.914,8.914v87.883c0,2.177-0.796,4.277-2.238,5.907L306.895,292.301
			C304.039,295.527,306.33,300.614,310.639,300.614z"/>
	</g>
</g>
</svg>