<?xml version="1.0" encoding="UTF-8"?>
<!DOCTYPE svg PUBLIC "-//W3C//DTD SVG 1.1//EN" "http://www.w3.org/Graphics/SVG/1.1/DTD/svg11.dtd">
<svg xmlns="http://www.w3.org/2000/svg" version="1.1" width="1200px" height="1200px" style="shape-rendering:geometricPrecision; text-rendering:geometricPrecision; image-rendering:optimizeQuality; fill-rule:evenodd; clip-rule:evenodd" xmlns:xlink="http://www.w3.org/1999/xlink">
<g><path style="opacity:1" fill="#fee0a2" d="M 119.5,359.5 C 439.5,359.5 759.5,359.5 1079.5,359.5C 1079.5,489.5 1079.5,619.5 1079.5,749.5C 959.5,749.5 839.5,749.5 719.5,749.5C 719.5,744.5 719.5,739.5 719.5,734.5C 834.5,734.5 949.5,734.5 1064.5,734.5C 1064.5,614.5 1064.5,494.5 1064.5,374.5C 754.5,374.5 444.5,374.5 134.5,374.5C 134.5,494.5 134.5,614.5 134.5,734.5C 249.5,734.5 364.5,734.5 479.5,734.5C 479.5,739.5 479.5,744.5 479.5,749.5C 359.5,749.5 239.5,749.5 119.5,749.5C 119.5,619.5 119.5,489.5 119.5,359.5 Z M 533.5,524.5 C 538.412,524.063 543.078,524.896 547.5,527C 551.533,530.168 552.367,534.001 550,538.5C 543.992,547.787 536.159,550.12 526.5,545.5C 524.008,540.929 523.508,536.262 525,531.5C 527.441,528.546 530.275,526.213 533.5,524.5 Z M 738.5,524.5 C 740.983,524.73 741.483,525.397 740,526.5C 738.97,526.164 738.47,525.497 738.5,524.5 Z M 436.5,529.5 C 438.9,531.581 439.066,533.914 437,536.5C 435.887,534.408 435.721,532.075 436.5,529.5 Z M 286.5,530.5 C 290.339,530.612 290.339,531.279 286.5,532.5C 285.537,532.03 285.537,531.363 286.5,530.5 Z M 443.5,536.5 C 443.5,536.167 443.5,535.833 443.5,535.5C 444.423,534.697 445.423,534.53 446.5,535C 445.756,536.039 444.756,536.539 443.5,536.5 Z M 660.5,535.5 C 661.849,534.203 663.182,534.37 664.5,536C 663.072,536.579 661.738,536.412 660.5,535.5 Z M 296.5,536.5 C 303.177,536.549 309.511,537.882 315.5,540.5C 316.541,542.585 318.041,544.252 320,545.5C 321.558,556.513 318.058,565.347 309.5,572C 301.478,575.85 293.311,576.35 285,573.5C 278.948,562.243 279.615,551.243 287,540.5C 289.888,538.288 293.055,536.954 296.5,536.5 Z M 726.5,536.5 C 731.844,536.334 737.177,536.501 742.5,537C 746.016,540.349 749.349,543.849 752.5,547.5C 751.408,551.796 751.408,556.13 752.5,560.5C 751.38,565.572 749.047,570.072 745.5,574C 735.658,581.587 726.158,581.087 717,572.5C 711.889,565.342 711.222,557.675 715,549.5C 717.392,546.772 719.392,543.772 721,540.5C 722.5,538.531 724.333,537.198 726.5,536.5 Z M 438.5,537.5 C 439.634,539.966 439.801,542.633 439,545.5C 438.048,542.699 437.882,540.033 438.5,537.5 Z M 551.5,539.5 C 552.797,540.849 552.63,542.182 551,543.5C 550.805,542.181 550.972,540.847 551.5,539.5 Z M 371.5,549.5 C 377.363,549.382 383.03,550.382 388.5,552.5C 389.192,553.025 389.692,553.692 390,554.5C 390.817,558.899 391.484,563.232 392,567.5C 386.063,570.884 379.897,573.884 373.5,576.5C 362.896,574.451 358.062,568.118 359,557.5C 362.579,553.724 366.746,551.057 371.5,549.5 Z M 884.5,549.5 C 890.363,549.382 896.03,550.382 901.5,552.5C 902.192,553.025 902.692,553.692 903,554.5C 903.817,558.899 904.484,563.232 905,567.5C 899.063,570.884 892.897,573.884 886.5,576.5C 875.896,574.451 871.062,568.118 872,557.5C 875.579,553.724 879.746,551.057 884.5,549.5 Z M 539.5,565.5 C 543.723,564.272 548.056,564.439 552.5,566C 548.195,565.923 543.862,565.756 539.5,565.5 Z M 537.5,573.5 C 551.287,571.98 561.787,576.98 569,588.5C 569.624,596.076 566.457,601.576 559.5,605C 549.206,608.062 538.873,608.062 528.5,605C 519.32,602.392 515.32,596.226 516.5,586.5C 516.388,581.89 518.055,578.057 521.5,575C 527.016,574.827 532.349,574.327 537.5,573.5 Z M 841.5,573.5 C 844.001,573.511 844.168,574.178 842,575.5C 841.536,574.906 841.369,574.239 841.5,573.5 Z M 557.5,574.5 C 559.38,574.229 560.713,574.896 561.5,576.5C 559.847,576.34 558.514,575.674 557.5,574.5 Z M 507.5,579.5 C 507.657,580.873 507.49,582.207 507,583.5C 506.283,582.956 505.783,582.289 505.5,581.5C 506.167,580.833 506.833,580.167 507.5,579.5 Z M 489.5,580.5 C 492.001,580.511 492.168,581.178 490,582.5C 489.536,581.906 489.369,581.239 489.5,580.5 Z M 526.5,701.5 C 529.978,701.184 533.312,701.684 536.5,703C 534.525,709.259 532.359,715.425 530,721.5C 522.505,719.679 519.505,715.012 521,707.5C 522.36,704.977 524.193,702.977 526.5,701.5 Z M 664.5,701.5 C 675.882,700.704 680.049,705.704 677,716.5C 674.805,718.93 672.138,720.597 669,721.5C 666.641,715.425 664.475,709.259 662.5,703C 663.416,702.722 664.082,702.222 664.5,701.5 Z"/></g>
<g><path style="opacity:0.943" fill="#ffe0a3" d="M 272.5,570.5 C 272.5,569.833 272.833,569.5 273.5,569.5C 274.315,570.429 275.148,571.429 276,572.5C 276.257,569.983 275.59,567.65 274,565.5C 273.333,566.167 272.667,566.833 272,567.5C 271.505,565.527 271.338,563.527 271.5,561.5C 273.382,560.779 273.715,559.779 272.5,558.5C 272.609,547.068 276.609,536.902 284.5,528C 297.749,522.606 310.416,523.773 322.5,531.5C 324.284,521.566 325.118,511.566 325,501.5C 323.333,500.5 321.667,499.5 320,498.5C 317.071,486.247 321.904,482.08 334.5,486C 335.984,490.162 336.651,494.496 336.5,499C 336.236,508.602 335.236,518.102 333.5,527.5C 334.718,528.803 334.385,529.803 332.5,530.5C 333.415,531.328 334.081,532.328 334.5,533.5C 332.849,548.983 331.516,564.317 330.5,579.5C 336.117,579.907 338.284,582.574 337,587.5C 335.933,588.191 334.766,588.691 333.5,589C 328.5,588.333 323.5,588.333 318.5,589C 317.056,585.675 316.056,582.175 315.5,578.5C 308.849,583.159 301.516,586.159 293.5,587.5C 283.576,585.38 276.576,579.713 272.5,570.5 Z M 286.5,530.5 C 285.537,531.363 285.537,532.03 286.5,532.5C 290.339,531.279 290.339,530.612 286.5,530.5 Z M 296.5,536.5 C 293.055,536.954 289.888,538.288 287,540.5C 279.615,551.243 278.948,562.243 285,573.5C 293.311,576.35 301.478,575.85 309.5,572C 318.058,565.347 321.558,556.513 320,545.5C 318.041,544.252 316.541,542.585 315.5,540.5C 309.511,537.882 303.177,536.549 296.5,536.5 Z"/></g>
<g><path style="opacity:0.935" fill="#ffe0a3" d="M 785.5,544.5 C 785.167,544.5 784.833,544.5 784.5,544.5C 783.833,544.5 783.5,544.833 783.5,545.5C 783.062,545.435 782.728,545.601 782.5,546C 783.973,546.71 784.64,547.876 784.5,549.5C 785.599,555.498 786.766,561.498 788,567.5C 802.276,581.599 816.276,580.932 830,565.5C 830.618,560.932 832.785,557.266 836.5,554.5C 843.291,559.943 847.291,566.776 848.5,575C 845.898,575.883 843.731,577.383 842,579.5C 840.446,576.898 838.28,575.731 835.5,576C 828.112,581.86 819.779,585.86 810.5,588C 789.003,587.673 776.67,576.84 773.5,555.5C 774.211,543.086 778.044,531.752 785,521.5C 796.784,511.175 809.95,509.008 824.5,515C 829.019,517.835 833.519,520.669 838,523.5C 838.667,524.5 838.667,525.5 838,526.5C 835.535,530.437 833.368,534.437 831.5,538.5C 824.916,538.428 822.249,535.261 823.5,529C 823.095,528.055 822.428,527.388 821.5,527C 811.123,524.117 801.289,525.283 792,530.5C 789.335,535.022 787.169,539.689 785.5,544.5 Z M 841.5,573.5 C 841.369,574.239 841.536,574.906 842,575.5C 844.168,574.178 844.001,573.511 841.5,573.5 Z"/></g>
<g><path style="opacity:0.961" fill="#ffe0a3" d="M 361.5,512.5 C 370.235,512.124 378.902,512.624 387.5,514C 395.155,520.988 400.322,529.488 403,539.5C 403.607,549.187 404.274,558.854 405,568.5C 407.5,572.333 410.667,575.5 414.5,578C 412.306,581.105 409.64,583.772 406.5,586C 405.167,586.667 403.833,586.667 402.5,586C 399.615,583.606 396.615,581.439 393.5,579.5C 385.693,583.157 377.526,585.491 369,586.5C 359.491,586.419 352.825,582.086 349,573.5C 345.677,551.17 355.344,539.504 378,538.5C 381.535,538.357 384.868,539.024 388,540.5C 385.903,525.515 377.403,520.182 362.5,524.5C 359.974,527.573 358.307,531.073 357.5,535C 354.126,535.914 350.792,536.581 347.5,537C 346.731,531.675 347.565,526.508 350,521.5C 353.449,517.877 357.283,514.877 361.5,512.5 Z M 371.5,549.5 C 366.746,551.057 362.579,553.724 359,557.5C 358.062,568.118 362.896,574.451 373.5,576.5C 379.897,573.884 386.063,570.884 392,567.5C 391.484,563.232 390.817,558.899 390,554.5C 389.692,553.692 389.192,553.025 388.5,552.5C 383.03,550.382 377.363,549.382 371.5,549.5 Z"/></g>
<g><path style="opacity:0.961" fill="#ffe0a3" d="M 874.5,512.5 C 883.235,512.124 891.902,512.624 900.5,514C 908.155,520.988 913.322,529.488 916,539.5C 916.607,549.187 917.274,558.854 918,568.5C 920.5,572.333 923.667,575.5 927.5,578C 925.306,581.105 922.64,583.772 919.5,586C 918.167,586.667 916.833,586.667 915.5,586C 912.615,583.606 909.615,581.439 906.5,579.5C 898.693,583.157 890.526,585.491 882,586.5C 872.491,586.419 865.825,582.086 862,573.5C 858.677,551.17 868.344,539.504 891,538.5C 894.535,538.357 897.868,539.024 901,540.5C 898.903,525.515 890.403,520.182 875.5,524.5C 872.974,527.573 871.307,531.073 870.5,535C 867.126,535.914 863.792,536.581 860.5,537C 859.731,531.675 860.565,526.508 863,521.5C 866.449,517.877 870.283,514.877 874.5,512.5 Z M 884.5,549.5 C 879.746,551.057 875.579,553.724 872,557.5C 871.062,568.118 875.896,574.451 886.5,576.5C 892.897,573.884 899.063,570.884 905,567.5C 904.484,563.232 903.817,558.899 903,554.5C 902.692,553.692 902.192,553.025 901.5,552.5C 896.03,550.382 890.363,549.382 884.5,549.5 Z"/></g>
<g><path style="opacity:0.93" fill="#ffe0a3" d="M 505.5,581.5 C 504.592,579.548 504.759,577.548 506,575.5C 509.03,571.146 512.03,566.812 515,562.5C 515.337,559.139 515.837,555.806 516.5,552.5C 513.258,545.004 512.758,537.338 515,529.5C 525.762,513.646 539.428,510.979 556,521.5C 558.344,519.819 560.677,518.152 563,516.5C 565.833,518 568,520.167 569.5,523C 567.347,525.822 565.181,528.656 563,531.5C 561.601,537.043 559.434,542.21 556.5,547C 551.48,550.032 546.48,553.032 541.5,556C 536.157,556.146 530.824,556.146 525.5,556C 524.446,558.382 523.779,560.882 523.5,563.5C 534.802,560.972 546.135,561.139 557.5,564C 571.174,569.328 578.84,579.328 580.5,594C 578.059,602.11 573.059,608.11 565.5,612C 549.051,619.458 532.718,619.125 516.5,611C 513.484,608.264 510.651,605.43 508,602.5C 507,598.5 506,594.5 505,590.5C 504.195,587.304 504.362,584.304 505.5,581.5 Z M 533.5,524.5 C 530.275,526.213 527.441,528.546 525,531.5C 523.508,536.262 524.008,540.929 526.5,545.5C 536.159,550.12 543.992,547.787 550,538.5C 552.367,534.001 551.533,530.168 547.5,527C 543.078,524.896 538.412,524.063 533.5,524.5 Z M 551.5,539.5 C 550.972,540.847 550.805,542.181 551,543.5C 552.63,542.182 552.797,540.849 551.5,539.5 Z M 539.5,565.5 C 543.862,565.756 548.195,565.923 552.5,566C 548.056,564.439 543.723,564.272 539.5,565.5 Z M 537.5,573.5 C 532.349,574.327 527.016,574.827 521.5,575C 518.055,578.057 516.388,581.89 516.5,586.5C 515.32,596.226 519.32,602.392 528.5,605C 538.873,608.062 549.206,608.062 559.5,605C 566.457,601.576 569.624,596.076 569,588.5C 561.787,576.98 551.287,571.98 537.5,573.5 Z M 557.5,574.5 C 559.38,574.229 560.713,574.896 561.5,576.5C 559.847,576.34 558.514,575.674 557.5,574.5 Z M 507.5,579.5 C 507.657,580.873 507.49,582.207 507,583.5C 506.283,582.956 505.783,582.289 505.5,581.5C 506.167,580.833 506.833,580.167 507.5,579.5 Z"/></g>
<g><path style="opacity:0.938" fill="#ffe0a3" d="M 422.5,517.5 C 428.509,517.334 434.509,517.501 440.5,518C 440.087,521.168 440.587,524.334 442,527.5C 448.869,523.766 456.202,521.433 464,520.5C 477.425,522.926 485.092,530.926 487,544.5C 486.819,554.879 486.652,565.212 486.5,575.5C 489.807,576.051 493.14,576.384 496.5,576.5C 496.002,579.487 495.502,582.487 495,585.5C 494.097,586.701 492.931,587.535 491.5,588C 484.734,588.199 478.067,589.032 471.5,590.5C 467.901,588.926 466.234,586.093 466.5,582C 470.233,570.928 472.567,559.595 473.5,548C 470.466,536.815 463.799,533.815 453.5,539C 441.978,546.364 437.978,556.864 441.5,570.5C 443.842,570.504 445.842,571.337 447.5,573C 446.167,573.333 444.833,573.667 443.5,574C 445.402,574.199 446.902,575.033 448,576.5C 448.301,579.507 448.135,582.507 447.5,585.5C 440.711,586.101 434.211,585.434 428,583.5C 425.144,578.125 425.977,573.625 430.5,570C 430.146,558.2 429.98,546.367 430,534.5C 429.692,533.692 429.192,533.025 428.5,532.5C 425.966,533.788 423.466,533.788 421,532.5C 420.182,527.349 420.682,522.349 422.5,517.5 Z M 436.5,529.5 C 435.721,532.075 435.887,534.408 437,536.5C 439.066,533.914 438.9,531.581 436.5,529.5 Z M 443.5,536.5 C 443.5,536.167 443.5,535.833 443.5,535.5C 444.423,534.697 445.423,534.53 446.5,535C 445.756,536.039 444.756,536.539 443.5,536.5 Z M 438.5,537.5 C 437.882,540.033 438.048,542.699 439,545.5C 439.801,542.633 439.634,539.966 438.5,537.5 Z M 489.5,580.5 C 489.369,581.239 489.536,581.906 490,582.5C 492.168,581.178 492.001,580.511 489.5,580.5 Z"/></g>
<g><path style="opacity:0.938" fill="#ffe0a3" d="M 608.5,516.5 C 614.708,517.997 621.042,519.164 627.5,520C 631.028,522.533 634.194,525.366 637,528.5C 642.882,525.559 648.882,522.892 655,520.5C 665.74,522.907 673.073,529.241 677,539.5C 679.108,550.088 680.608,560.755 681.5,571.5C 683.144,571.714 684.644,571.38 686,570.5C 686.667,571.167 687.333,571.833 688,572.5C 688.499,576.821 688.666,581.154 688.5,585.5C 680.075,586.517 671.742,586.517 663.5,585.5C 661.51,582.111 661.01,578.444 662,574.5C 663.699,573.594 665.533,573.261 667.5,573.5C 667.868,564.491 668.035,555.491 668,546.5C 667.535,545.069 666.701,543.903 665.5,543C 661.486,540.505 657.153,538.672 652.5,537.5C 647.822,537.585 644.322,539.585 642,543.5C 641.333,551.5 641.333,559.5 642,567.5C 642.112,570.447 643.612,571.78 646.5,571.5C 646.38,574.48 645.713,577.313 644.5,580C 643.128,580.402 641.795,580.902 640.5,581.5C 635.968,580.86 631.468,580.194 627,579.5C 624.286,575.344 625.119,572.344 629.5,570.5C 630.75,561.497 630.75,552.497 629.5,543.5C 629.39,541.626 630.056,540.126 631.5,539C 625.858,531.442 619.025,529.942 611,534.5C 610.333,547.5 610.333,560.5 611,573.5C 613.267,572.065 615.267,572.398 617,574.5C 619.245,583.068 615.912,586.735 607,585.5C 601.169,584.972 595.336,584.472 589.5,584C 588.128,581.467 587.128,578.8 586.5,576C 589.619,573.107 593.286,571.274 597.5,570.5C 598.865,557.536 599.532,544.536 599.5,531.5C 596.482,531.665 593.482,531.498 590.5,531C 589.833,530.333 589.167,529.667 588.5,529C 589.346,526.218 589.513,523.384 589,520.5C 589.5,520 590,519.5 590.5,519C 596.659,518.25 602.659,517.417 608.5,516.5 Z M 660.5,535.5 C 661.738,536.412 663.072,536.579 664.5,536C 663.182,534.37 661.849,534.203 660.5,535.5 Z"/></g>
<g><path style="opacity:0.241" fill="#ffe1a3" d="M 807.5,518.5 C 809.288,517.378 811.288,517.211 813.5,518C 811.975,519.009 810.308,519.509 808.5,519.5C 808.5,518.833 808.167,518.5 807.5,518.5 Z"/></g>
<g><path style="opacity:0.942" fill="#ffe0a3" d="M 732.5,521.5 C 744.358,523.188 753.858,528.854 761,538.5C 761.595,539.899 761.428,541.232 760.5,542.5C 761.718,542.109 762.552,542.776 763,544.5C 764.87,551.15 764.87,557.816 763,564.5C 758.616,573.867 752.449,581.701 744.5,588C 720.921,593.718 706.254,584.885 700.5,561.5C 701.975,556.574 703.142,551.574 704,546.5C 707.309,538.2 712.476,531.367 719.5,526C 723.893,524.329 728.226,522.829 732.5,521.5 Z M 738.5,524.5 C 738.47,525.497 738.97,526.164 740,526.5C 741.483,525.397 740.983,524.73 738.5,524.5 Z M 726.5,536.5 C 724.333,537.198 722.5,538.531 721,540.5C 719.392,543.772 717.392,546.772 715,549.5C 711.222,557.675 711.889,565.342 717,572.5C 726.158,581.087 735.658,581.587 745.5,574C 749.047,570.072 751.38,565.572 752.5,560.5C 751.408,556.13 751.408,551.796 752.5,547.5C 749.349,543.849 746.016,540.349 742.5,537C 737.177,536.501 731.844,536.334 726.5,536.5 Z"/></g>
<g><path style="opacity:0.215" fill="#ffe1a3" d="M 563.5,524.5 C 565.657,525.053 565.49,526.053 563,527.5C 562.53,526.423 562.697,525.423 563.5,524.5 Z"/></g>
<g><path style="opacity:0.259" fill="#ffe1a3" d="M 648.5,526.5 C 648.517,524.972 649.184,524.472 650.5,525C 649.956,525.717 649.289,526.217 648.5,526.5 Z"/></g>
<g><path style="opacity:0.231" fill="#ffe1a3" d="M 662.5,524.5 C 663.885,525.302 663.718,525.969 662,526.5C 661.235,526.43 660.735,526.097 660.5,525.5C 661.492,525.672 662.158,525.338 662.5,524.5 Z"/></g>
<g><path style="opacity:0.281" fill="#ffe1a3" d="M 730.5,526.5 C 730.843,524.775 731.843,524.275 733.5,525C 732.756,526.039 731.756,526.539 730.5,526.5 Z"/></g>
<g><path style="opacity:0.281" fill="#ffe1a3" d="M 595.5,526.5 C 596.601,525.402 597.934,525.235 599.5,526C 598.956,526.717 598.289,527.217 597.5,527.5C 597.158,526.662 596.492,526.328 595.5,526.5 Z"/></g>
<g><path style="opacity:0.231" fill="#ffe1a3" d="M 431.5,526.5 C 431.5,527.167 431.5,527.833 431.5,528.5C 427.714,528.362 427.714,527.695 431.5,526.5 Z"/></g>
<g><path style="opacity:0.215" fill="#ffe1a3" d="M 432.5,526.5 C 433.833,527.833 433.833,529.167 432.5,530.5C 432.5,529.833 432.167,529.5 431.5,529.5C 431.5,529.167 431.5,528.833 431.5,528.5C 432.338,528.158 432.672,527.492 432.5,526.5 Z"/></g>
<g><path style="opacity:0.204" fill="#ffe1a3" d="M 470.5,528.5 C 469.833,528.5 469.5,528.833 469.5,529.5C 468.957,529.44 468.624,529.107 468.5,528.5C 469.257,527.227 469.923,527.227 470.5,528.5 Z"/></g>
<g><path style="opacity:0.314" fill="#fee1a2" d="M 302.5,528.5 C 304.308,528.491 305.975,528.991 307.5,530C 306.667,530.167 305.833,530.333 305,530.5C 303.624,530.316 302.791,529.649 302.5,528.5 Z"/></g>
<g><path style="opacity:0.204" fill="#ffe1a3" d="M 721.5,528.5 C 721.167,529.5 720.5,530.167 719.5,530.5C 719.5,529.167 720.167,528.5 721.5,528.5 Z"/></g>
<g><path style="opacity:0.215" fill="#ffe1a3" d="M 637.5,531.5 C 638.601,530.402 639.934,530.235 641.5,531C 640.956,531.717 640.289,532.217 639.5,532.5C 639.158,531.662 638.492,531.328 637.5,531.5 Z"/></g>
<g><path style="opacity:0.149" fill="#fee2a3" d="M 667.5,532.5 C 669.085,533.002 669.585,534.002 669,535.5C 667.961,534.756 667.461,533.756 667.5,532.5 Z"/></g>
<g><path style="opacity:0.231" fill="#ffe1a3" d="M 729.5,533.5 C 729.842,532.662 730.508,532.328 731.5,532.5C 731.5,533.167 731.833,533.5 732.5,533.5C 732.158,534.338 731.492,534.672 730.5,534.5C 730.5,533.833 730.167,533.5 729.5,533.5 Z"/></g>
<g><path style="opacity:0.204" fill="#ffe1a3" d="M 443.5,535.5 C 443.5,535.833 443.5,536.167 443.5,536.5C 440.895,537.504 440.895,537.17 443.5,535.5 Z"/></g>
<g><path style="opacity:0.273" fill="#ffe1a3" d="M 449.5,535.5 C 450.713,536.497 450.546,537.497 449,538.5C 448.53,537.423 448.697,536.423 449.5,535.5 Z"/></g>
<g><path style="opacity:0.314" fill="#fee1a2" d="M 715.5,539.5 C 716.713,540.497 716.546,541.497 715,542.5C 714.53,541.423 714.697,540.423 715.5,539.5 Z"/></g>
<g><path style="opacity:0.243" fill="#ffe1a3" d="M 784.5,544.5 C 784.833,544.5 785.167,544.5 785.5,544.5C 785.784,546.415 785.451,548.081 784.5,549.5C 784.64,547.876 783.973,546.71 782.5,546C 782.728,545.601 783.062,545.435 783.5,545.5C 784.167,545.5 784.5,545.167 784.5,544.5 Z"/></g>
<g><path style="opacity:0.243" fill="#ffe1a3" d="M 779.5,550.5 C 780.782,551.708 780.782,553.042 779.5,554.5C 778.374,553.192 778.374,551.858 779.5,550.5 Z"/></g>
<g><path style="opacity:0.204" fill="#ffe1a3" d="M 519.5,555.5 C 520.077,554.227 520.743,554.227 521.5,555.5C 521.03,556.463 520.363,556.463 519.5,555.5 Z"/></g>
<g><path style="opacity:0.19" fill="#ffe1a3" d="M 272.5,558.5 C 273.715,559.779 273.382,560.779 271.5,561.5C 271.557,560.391 271.89,559.391 272.5,558.5 Z"/></g>
<g><path style="opacity:0.277" fill="#ffe1a3" d="M 554.5,565.5 C 560.982,567.121 560.648,567.621 553.5,567C 554.056,566.617 554.389,566.117 554.5,565.5 Z"/></g>
<g><path style="opacity:0.204" fill="#ffe1a3" d="M 273.5,569.5 C 272.833,569.5 272.5,569.833 272.5,570.5C 271.957,570.44 271.624,570.107 271.5,569.5C 272.257,568.227 272.923,568.227 273.5,569.5 Z"/></g>
<g><path style="opacity:0.259" fill="#ffe1a3" d="M 601.5,570.5 C 601.56,569.957 601.893,569.624 602.5,569.5C 603.773,570.257 603.773,570.923 602.5,571.5C 602.5,570.833 602.167,570.5 601.5,570.5 Z"/></g>
<g><path style="opacity:0.273" fill="#ffe1a3" d="M 605.5,570.5 C 607.085,571.002 607.585,572.002 607,573.5C 605.961,572.756 605.461,571.756 605.5,570.5 Z"/></g>
<g><path style="opacity:0.149" fill="#fee2a3" d="M 514.5,571.5 C 514.483,573.028 513.816,573.528 512.5,573C 513.044,572.283 513.711,571.783 514.5,571.5 Z"/></g>
<g><path style="opacity:0.231" fill="#ffe1a3" d="M 305.5,575.5 C 305.5,576.833 304.833,577.5 303.5,577.5C 303.5,576.167 304.167,575.5 305.5,575.5 Z"/></g>
<g><path style="opacity:0.231" fill="#ffe1a3" d="M 591.5,577.5 C 590.833,577.5 590.5,577.833 590.5,578.5C 589.287,577.503 589.454,576.503 591,575.5C 591.464,576.094 591.631,576.761 591.5,577.5 Z"/></g>
<g><path style="opacity:0.19" fill="#ffe1a3" d="M 715.5,582.5 C 714.527,582.013 713.527,581.513 712.5,581C 714.157,580.275 715.157,580.775 715.5,582.5 Z"/></g>
<g><path style="opacity:0.259" fill="#ffe1a3" d="M 292.5,583.5 C 300.109,583.445 300.275,584.112 293,585.5C 291.316,585.317 291.15,584.65 292.5,583.5 Z"/></g>
<g><path style="opacity:0.19" fill="#ffe1a3" d="M 736.5,584.5 C 736.842,585.338 737.508,585.672 738.5,585.5C 737.614,586.776 736.614,586.776 735.5,585.5C 735.624,584.893 735.957,584.56 736.5,584.5 Z"/></g>
<g><path style="opacity:0.259" fill="#ffe1a3" d="M 513.5,590.5 C 515.147,592.186 515.314,593.853 514,595.5C 513.506,593.866 513.34,592.199 513.5,590.5 Z"/></g>
<g><path style="opacity:0.286" fill="#ffe1a3" d="M 531.5,608.5 C 532.922,608.709 534.255,609.209 535.5,610C 533.537,610.844 532.204,610.344 531.5,608.5 Z"/></g>
<g><path style="opacity:0.267" fill="#ffe1a3" d="M 539.5,610.5 C 539.5,610.167 539.5,609.833 539.5,609.5C 543.49,609.999 547.49,610.499 551.5,611C 547.446,611.694 543.446,611.527 539.5,610.5 Z"/></g>
<g><path style="opacity:0.96" fill="#ffe0a3" d="M 595.5,651.5 C 616.374,651.875 628.374,662.375 631.5,683C 631.277,689.339 629.277,695.006 625.5,700C 638.332,699.306 650.999,697.306 663.5,694C 674.582,691.79 682.082,695.956 686,706.5C 687.634,714.6 685.134,721.1 678.5,726C 662.994,730.251 647.494,734.418 632,738.5C 631.161,745.567 631.494,752.567 633,759.5C 638.53,773.756 643.863,788.089 649,802.5C 653.862,813.156 652.028,822.323 643.5,830C 633.637,834.326 625.47,832.159 619,823.5C 612.483,809.136 605.983,794.803 599.5,780.5C 593.017,794.803 586.517,809.136 580,823.5C 568.011,836.167 557.345,835.167 548,820.5C 547.333,816.5 547.333,812.5 548,808.5C 554.333,790.833 560.667,773.167 567,755.5C 567.667,749.833 567.667,744.167 567,738.5C 552.27,734.442 537.437,730.609 522.5,727C 512.527,720.743 510.027,712.243 515,701.5C 520.123,694.356 526.956,691.856 535.5,694C 548.001,697.306 560.668,699.306 573.5,700C 564.29,683.602 566.957,669.269 581.5,657C 586.017,654.445 590.684,652.612 595.5,651.5 Z M 595.5,659.5 C 615.761,660.251 624.594,670.584 622,690.5C 619.768,696.298 616.102,700.965 611,704.5C 610.257,706.441 610.424,708.274 611.5,710C 625.467,709.423 639.3,707.59 653,704.5C 653.772,704.645 654.439,704.978 655,705.5C 656.936,711.141 658.769,716.808 660.5,722.5C 651.249,724.979 641.916,727.146 632.5,729C 628.333,730.5 625.5,733.333 624,737.5C 623.333,744.167 623.333,750.833 624,757.5C 628.833,770.667 633.667,783.833 638.5,797C 638.167,797.5 637.833,798 637.5,798.5C 631.39,801.659 625.057,803.325 618.5,803.5C 614.333,793.833 610.167,784.167 606,774.5C 601.585,769.274 597.251,769.274 593,774.5C 588.538,784.417 584.372,794.417 580.5,804.5C 573.425,803.294 566.758,800.96 560.5,797.5C 565.235,784.128 570.068,770.795 575,757.5C 575.667,750.833 575.667,744.167 575,737.5C 573.402,732.901 570.235,730.068 565.5,729C 556.445,727.023 547.445,724.856 538.5,722.5C 540.231,716.808 542.064,711.141 544,705.5C 544.561,704.978 545.228,704.645 546,704.5C 556.782,706.603 567.616,708.436 578.5,710C 581.76,710.784 584.927,710.617 588,709.5C 588.667,707.833 588.667,706.167 588,704.5C 572.484,691.904 571.651,678.404 585.5,664C 588.815,662.17 592.149,660.67 595.5,659.5 Z M 526.5,701.5 C 524.193,702.977 522.36,704.977 521,707.5C 519.505,715.012 522.505,719.679 530,721.5C 532.359,715.425 534.525,709.259 536.5,703C 533.312,701.684 529.978,701.184 526.5,701.5 Z M 664.5,701.5 C 664.082,702.222 663.416,702.722 662.5,703C 664.475,709.259 666.641,715.425 669,721.5C 672.138,720.597 674.805,718.93 677,716.5C 680.049,705.704 675.882,700.704 664.5,701.5 Z M 557.5,806.5 C 564.092,807.975 570.426,810.142 576.5,813C 574.899,818.267 571.565,821.933 566.5,824C 559.622,824.626 555.956,821.459 555.5,814.5C 555.564,811.65 556.23,808.983 557.5,806.5 Z M 638.5,806.5 C 639.822,806.33 640.989,806.663 642,807.5C 646.084,818.206 642.584,823.706 631.5,824C 627.087,821.516 624.087,817.849 622.5,813C 627.859,810.718 633.193,808.551 638.5,806.5 Z"/></g>
<g><path style="opacity:0.945" fill="#ffe0a3" d="M 587.5,673.5 C 592.406,672.306 595.406,674.139 596.5,679C 594.516,684.747 591.016,685.913 586,682.5C 584.058,679.141 584.558,676.141 587.5,673.5 Z"/></g>
<g><path style="opacity:0.945" fill="#ffe0a3" d="M 605.5,673.5 C 610.406,672.306 613.406,674.139 614.5,679C 612.516,684.747 609.016,685.913 604,682.5C 602.058,679.141 602.558,676.141 605.5,673.5 Z"/></g>
<g><path style="opacity:0.901" fill="#ffe0a3" d="M 588.5,693.5 C 590.932,694.75 593.266,696.25 595.5,698C 601.172,699.545 605.839,698.045 609.5,693.5C 610.72,693.887 611.387,694.72 611.5,696C 610.561,697.944 609.227,699.611 607.5,701C 599.227,704.218 592.227,702.551 586.5,696C 587.381,695.292 588.047,694.458 588.5,693.5 Z"/></g>
<g><path style="opacity:0.963" fill="#ffe0a3" d="M 597.5,723.5 C 605.345,724.155 608.179,728.155 606,735.5C 602.547,738.769 598.714,739.269 594.5,737C 590.61,731.487 591.61,726.987 597.5,723.5 Z"/></g>
<g><path style="opacity:0.968" fill="#ffe0a3" d="M 597.5,748.5 C 602.894,748.559 606.228,751.225 607.5,756.5C 605.961,763.044 601.961,765.211 595.5,763C 590.28,757.458 590.947,752.625 597.5,748.5 Z"/></g>
</svg>
