<?xml version="1.0" encoding="utf-8"?>
<svg viewBox="2.708 0.829 49.688 16.977" fill="#000000" style="fill-rule:evenodd;clip-rule:evenodd;stroke-linejoin:round;stroke-miterlimit:2;" xmlns="http://www.w3.org/2000/svg">
  <g transform="matrix(1, 0, 0, 1, -1152, -256)">
    <rect id="Icons" x="0" y="0" width="1280" height="800" style="fill:none;"/>
    <g id="Icons1" style="" transform="matrix(0.26962, 0, 0, 0.268393, 844.042175, 188.259369)">
      <g id="Strike"/>
      <g id="H1"/>
      <g id="H2"/>
      <g id="H3"/>
      <g id="list-ul"/>
      <g id="hamburger-1"/>
      <g id="hamburger-2"/>
      <g id="list-ol"/>
      <g id="list-task"/>
      <g id="trash"/>
      <g id="vertical-menu"/>
      <g id="horizontal-menu"/>
      <g id="sidebar-2"/>
      <g id="Pen"/>
      <g id="Pen1"/>
      <g id="clock"/>
      <g id="external-link"/>
      <g id="hr"/>
      <g id="info"/>
      <g id="warning"/>
      <g id="plus-circle"/>
      <g id="minus-circle"/>
      <g id="vue"/>
      <g id="cog"/>
      <g id="logo"/>
      <g id="radio-check"/>
      <g id="eye-slash"/>
      <g id="eye"/>
      <g id="toggle-off"/>
      <g id="shredder"/>
      <g id="spinner--loading--dots-"/>
      <g id="react"/>
      <g id="check-selected"/>
      <g id="turn-off"/>
      <g id="code-block"/>
      <g id="user"/>
      <g id="coffee-bean"/>
      <g transform="matrix(0.638317,0.368532,-0.368532,0.638317,785.021,-208.975)">
        <g id="coffee-beans">
          <g id="coffee-bean1"/>
        </g>
      </g>
      <g id="coffee-bean-filled" transform="matrix(0.866025,0.5,-0.5,0.866025,717.879,-387.292)">
        <g transform="matrix(1,0,0,1,0,-0.699553)">
          <path d="M 737.673 328.231 C 738.494 328.056 741.556 328.313 741.979 329.038 C 742.177 329.349 740.106 329.722 740.106 329.722 C 740.011 329.558 731.374 327.893 732.822 343.742 C 734.034 357.007 719.134 358.998 732.062 369.837 C 734.66 372.016 736.566 375.344 735.785 374.898 C 730.43 371.84 722.028 365.058 722.021 352 C 722.015 340.226 728.812 330.279 737.673 328.231 Z" style="fill: rgb(169, 121, 82);"/>
        </g>
        <g transform="matrix(-1,0,0,-1,1483.03,703.293)">
          <path d="M737.609,328.246C738.465,328.06 739.344,328.446 739.785,329.203C739.97,329.49 740.106,329.722 740.106,329.722C740.106,329.722 745.206,338.581 739.429,352.782C737.1,358.507 736.503,365.948 738.383,371.527C738.646,372.304 738.415,373.164 737.796,373.703C737.177,374.243 736.294,374.356 735.56,373.989C730.02,371.241 722.028,364.92 722.021,352C722.016,340.255 728.779,330.328 737.609,328.246Z" style="fill: rgb(98, 61, 31);"/>
        </g>
      </g>
      <g transform="matrix(0.638317,0.368532,-0.368532,0.638317,913.062,-208.975)">
        <g id="coffee-beans-filled">
          <g id="coffee-bean2"/>
        </g>
      </g>
      <g id="clipboard"/>
      <g transform="matrix(1,0,0,1,128.011,1.35415)">
        <g id="clipboard-paste"/>
      </g>
      <g id="clipboard-copy"/>
      <g id="Layer1"/>
    </g>
  </g>
  <text style="fill: rgb(51, 51, 51); font-family: GangwonEduAll; font-size: 7px; white-space: pre; text-anchor: middle;" x="33.395" y="12.07" transform="matrix(1, 0, 0, 1, -3.552713678800501e-15, -1.7763568394002505e-15)">DANGMOCA</text>
</svg>