<?xml version="1.0" encoding="iso-8859-1"?>
<!-- Uploaded to: SVG Repo, www.svgrepo.com, Generator: SVG Repo Mixer Tools -->
<svg height="800px" width="800px" version="1.1" id="Layer_1" xmlns="http://www.w3.org/2000/svg" xmlns:xlink="http://www.w3.org/1999/xlink" 
	 viewBox="0 0 512.002 512.002" xml:space="preserve">
<g transform="translate(0 -1)">
	<g>
		<path d="M512.001,330.677v-90.743H501.13c-33.319,0-63.604,12.971-86.094,34.133H264.534V137.533h216.879
			c14.427,0,18.896-19.52,5.911-25.805L259.715,1.849c-2.344-1.131-5.076-1.131-7.42,0L24.686,111.724
			c-12.993,6.29-8.524,25.81,5.903,25.81h216.879v136.533H96.966c-22.49-21.162-52.774-34.133-86.094-34.133H0.001v90.743
			c0,23.452,17.629,42.768,40.354,45.458L8.789,502.397c-1.143,4.572,1.637,9.205,6.209,10.348
			c4.572,1.143,9.205-1.637,10.348-6.209l30.561-122.242l38.349,122.718c1.406,4.498,6.192,7.005,10.69,5.6
			c4.498-1.406,7.005-6.192,5.6-10.69L71.341,376.467h65.193v-10.871c0-14.107-2.324-27.67-6.611-40.329h74.877V359.4h25.6v68.267
			c0,37.706-30.56,68.267-68.267,68.267h-17.067c-4.713,0-8.533,3.821-8.533,8.533s3.82,8.533,8.533,8.533h17.067h187.733h17.067
			c4.713,0,8.533-3.821,8.533-8.533s-3.82-8.533-8.533-8.533h-17.067c-37.706,0-68.267-30.56-68.267-68.267V359.4h25.6v-34.133
			h74.877c-4.286,12.658-6.611,26.222-6.611,40.329v10.871h57.337l-31.483,125.93c-1.143,4.572,1.637,9.205,6.209,10.348
			c4.572,1.143,9.205-1.637,10.348-6.209l30.561-122.242l38.349,122.718c1.406,4.498,6.192,7.005,10.69,5.6
			c4.498-1.406,7.005-6.192,5.6-10.69l-39.205-125.455h2.336C491.501,376.467,512.001,355.969,512.001,330.677z M256.005,19.009
			L466.17,120.467H45.833L256.005,19.009z M59.773,359.4c-0.03,0-0.061,0-0.091,0H45.791c-15.864,0-28.723-12.857-28.723-28.723
			v-73.503c27.002,1.518,51.363,12.905,69.546,30.606l0.871,0.867c9.066,9.026,16.509,19.752,21.982,31.652l2.122,4.614
			c4.346,10.749,7.023,22.351,7.706,34.487H59.773z M290.134,342.333h-25.6v85.333c0,27.916,13.401,52.699,34.122,68.267h-85.311
			c20.721-15.568,34.122-40.351,34.122-68.267v-85.333h-25.6v-17.067h68.267V342.333z M307.201,308.2h-102.4h-82.112
			c-3.078-5.985-6.627-11.688-10.59-17.067h287.804c-3.963,5.379-7.512,11.081-10.59,17.067H307.201z M400.414,324.912l2.121-4.613
			c5.473-11.9,12.917-22.626,21.982-31.652l0.868-0.864c18.183-17.703,42.545-29.091,69.549-30.61v73.503
			c0,15.866-12.859,28.723-28.723,28.723h-13.905c-0.03,0-0.061,0-0.091,0h-59.507C393.391,347.263,396.068,335.661,400.414,324.912
			z"/>
	</g>
</g>
</svg>