<svg width="46" height="46" viewBox="0 0 46 46" fill="none" xmlns="http://www.w3.org/2000/svg">
<path d="M31.7327 24.7369L30.8596 25.6048C30.8596 25.6048 28.7846 27.668 23.1209 22.0363C17.4572 16.4048 19.5321 14.3416 19.5321 14.3416L20.0818 13.795C21.4361 12.4484 21.5638 10.2866 20.3822 8.70834L17.9654 5.47991C16.503 3.52652 13.6772 3.26848 12.0011 4.93509L8.99267 7.92642C8.16156 8.75281 7.60462 9.82405 7.67216 11.0124C7.84495 14.0527 9.22048 20.594 16.8961 28.226C25.0356 36.3193 32.673 36.6409 35.7962 36.3498C36.784 36.2578 37.6431 35.7547 38.3354 35.0662L41.0582 32.3591C42.8961 30.5315 42.3778 27.3986 40.0263 26.1203L36.3645 24.1297C34.8204 23.2904 32.9394 23.5369 31.7327 24.7369Z" fill="#1C274C"/>
</svg>
