<?xml version="1.0" encoding="utf-8"?>
<!-- Uploaded to: SVG Repo, www.svgrepo.com, Generator: SVG Repo Mixer Tools -->
<svg fill="#000000" width="800px" height="800px" viewBox="0 0 32 32" version="1.1" xmlns="http://www.w3.org/2000/svg">
<title>pin-dot</title>
<path d="M15.961 1.25c-6.167 0.346-11.114 5.134-11.707 11.199l-0.004 0.051c0 4.65 9.998 16.633 11.138 17.984 0.138 0.163 0.343 0.265 0.572 0.266h0.001c0 0 0.001 0 0.001 0 0.228 0 0.432-0.102 0.569-0.263l0.001-0.001c1.148-1.352 11.218-13.334 11.218-17.986-0.62-6.132-5.597-10.924-11.758-11.249l-0.031-0.001zM15.963 28.832c-3.31-4.014-10.213-13.060-10.213-16.332 0.601-5.283 4.875-9.398 10.178-9.748l0.033-0.002c5.361 0.332 9.666 4.451 10.284 9.698l0.005 0.052c0 3.271-6.955 12.32-10.287 16.332zM16 6.929c-2.8 0.001-5.070 2.271-5.070 5.071s2.271 5.071 5.071 5.071 5.071-2.271 5.071-5.071v0c-0.004-2.8-2.272-5.068-5.072-5.071h-0zM16 15.571c-1.972-0.001-3.57-1.599-3.57-3.571s1.599-3.571 3.571-3.571 3.571 1.599 3.571 3.571v0c-0.003 1.972-1.601 3.569-3.572 3.571h-0z"></path>
</svg>