<svg width="38" height="38" viewBox="0 0 38 38" fill="none" xmlns="http://www.w3.org/2000/svg">
<g clip-path="url(#clip0_189_615)">
<path d="M19.1354 -0.0130615C11.3466 -0.0130615 4.75 6.6215 4.75 14.4792C4.75 22.7086 12.3963 31.1244 17.5394 37.0393C17.5596 37.0631 18.3908 37.9858 19.4144 37.9858H19.5047C20.5295 37.9858 21.3548 37.0631 21.375 37.0393C26.201 31.4913 33.25 22.3416 33.25 14.4792C33.25 6.62031 28.1046 -0.0130615 19.1354 -0.0130615ZM19.6116 35.4457C19.57 35.4873 19.5094 35.5336 19.456 35.5728C19.4014 35.5347 19.342 35.4873 19.2981 35.4457L18.677 34.7308C13.8011 29.1377 7.12381 21.4771 7.12381 14.478C7.12381 7.90875 12.6243 2.35956 19.1342 2.35956C27.2436 2.35956 30.8738 8.4455 30.8738 14.478C30.8738 19.7909 27.0845 26.847 19.6116 35.4457ZM19.0416 7.17725C15.1074 7.17725 11.9166 10.3669 11.9166 14.3022C11.9166 18.2376 15.1074 21.4273 19.0416 21.4273C22.9757 21.4273 26.1666 18.2364 26.1666 14.3022C26.1666 10.3681 22.9769 7.17725 19.0416 7.17725ZM19.0416 19.0523C16.4219 19.0523 14.2369 16.8696 14.2369 14.25C14.2369 11.6304 16.3673 9.5 18.9869 9.5C21.6077 9.5 23.7369 11.6304 23.7369 14.25C23.7381 16.8696 21.6624 19.0523 19.0416 19.0523Z" fill="black"/>
</g>
<defs>
<clipPath id="clip0_189_615">
<rect width="38" height="38" fill="white"/>
</clipPath>
</defs>
</svg>