<?xml version="1.0" encoding="iso-8859-1"?>
<!-- Uploaded to: SVG Repo, www.svgrepo.com, Generator: SVG Repo Mixer Tools -->
<svg height="800px" width="800px" version="1.1" id="Layer_1" xmlns="http://www.w3.org/2000/svg" xmlns:xlink="http://www.w3.org/1999/xlink" 
	 viewBox="0 0 506.4 506.4" xml:space="preserve">
<circle style="fill:#A97952;" cx="253.2" cy="253.2" r="249.2"/>
<path style="fill:#F4EFEF;" d="M253.2,219.2L253.2,219.2L156,316.4c-3.6,3.6-9.6,3.6-13.2,0l-9.2-9.2c-3.6-3.6-3.6-9.6,0-13.2
	l113.2-113.2c2-2,4.4-2.8,6.8-2.8c2.4,0,4.8,0.8,6.8,2.8L373.6,294c3.6,3.6,3.6,9.6,0,13.2l-9.2,9.2c-3.6,3.6-9.6,3.6-13.2,0
	L253.2,219.2z"/>
<path d="M357.6,323.2c-3.6,0-6.8-1.2-9.6-4l-94.4-94.4l-94.4,94.4c-5.2,5.2-14,5.2-18.8,0l-9.2-9.2c-2.4-2.4-4-6-4-9.6
	s1.2-6.8,4-9.6l113.2-113.2c2.4-2.4,6-4,9.6-4s6.8,1.2,9.6,4l113.2,113.2c5.2,5.2,5.2,13.6,0,18.8l-9.2,9.2
	C364.4,322,360.8,323.2,357.6,323.2z M253.2,215.2L253.2,215.2c1.2,0,2,0.4,2.8,1.2l97.6,97.6c2,2,5.6,2,7.6,0l9.2-9.2
	c2-2,2-5.6,0-7.6L257.2,184c-1.2-1.2-2.4-1.6-4-1.6s-2.8,0.4-4,1.6L136,297.2c-1.2,1.2-1.6,2.4-1.6,4s0.4,2.8,1.6,4l9.2,9.2
	c2,2,5.6,2,7.6,0l97.2-97.2C251.2,215.6,252.4,215.2,253.2,215.2z"/>
<path d="M253.2,506.4C113.6,506.4,0,392.8,0,253.2S113.6,0,253.2,0s253.2,113.6,253.2,253.2S392.8,506.4,253.2,506.4z M253.2,8
	C118,8,8,118,8,253.2s110,245.2,245.2,245.2s245.2-110,245.2-245.2S388.4,8,253.2,8z"/>
</svg>