<?xml version="1.0" encoding="iso-8859-1"?>
<!-- Uploaded to: SVG Repo, www.svgrepo.com, Generator: SVG Repo Mixer Tools -->
<svg height="800px" width="800px" version="1.1" id="Layer_1" xmlns="http://www.w3.org/2000/svg" xmlns:xlink="http://www.w3.org/1999/xlink" 
	 viewBox="0 0 512.001 512.001" xml:space="preserve">
<g>
	<g>
		<g>
			<path d="M234.442,59.286h84.615c4.465,0,8.084-3.619,8.084-8.084s-3.62-8.084-8.084-8.084h-84.615
				c-7.43,0-13.474-6.044-13.474-13.474s6.044-13.474,13.474-13.474h172.463c7.43,0,13.474,6.044,13.474,13.474
				c0,2.38-0.612,4.643-1.82,6.727c-2.238,3.864-0.919,8.81,2.945,11.047c3.862,2.239,8.81,0.918,11.047-2.944
				c2.614-4.515,3.996-9.643,3.996-14.831c0-16.344-13.297-29.642-29.642-29.642H234.442c-16.345,0-29.642,13.298-29.642,29.642
				S218.097,59.286,234.442,59.286z"/>
			<path d="M309.895,194.023h-67.907c-4.465,0-8.084,3.618-8.084,8.084c0,4.466,3.62,8.084,8.084,8.084h67.907
				c16.345,0,29.642-13.298,29.642-29.642s-13.297-29.642-29.642-29.642h-44.194c-4.465,0-8.084,3.618-8.084,8.084
				c0,4.466,3.62,8.084,8.084,8.084h44.194c7.43,0,13.474,6.044,13.474,13.474C323.368,187.978,317.325,194.023,309.895,194.023z"/>
			<path d="M187.913,61.981v104.915c0,4.466,3.62,8.084,8.084,8.084s8.084-3.618,8.084-8.084V61.981c0-4.466-3.62-8.084-8.084-8.084
				S187.913,57.515,187.913,61.981z"/>
			<path d="M453.435,48.507h28.923c7.43,0,13.474,6.044,13.474,13.474s-6.044,13.474-13.474,13.474H363.789
				c-7.43,0-13.474-6.044-13.474-13.474c0-2.38,0.612-4.644,1.819-6.727c2.238-3.864,0.919-8.81-2.945-11.047
				c-3.862-2.238-8.809-0.919-11.047,2.944c-2.614,4.515-3.996,9.642-3.996,14.831c0,16.344,13.297,29.642,29.642,29.642h118.568
				c16.345,0,29.642-13.298,29.642-29.642s-13.297-29.642-29.642-29.642h-28.923c-4.465,0-8.084,3.618-8.084,8.084
				C445.351,44.888,448.97,48.507,453.435,48.507z"/>
			<path d="M99.705,280.253c-10.401,0-18.863,8.463-18.863,18.863c0,16.344,13.297,29.642,29.642,29.642H153.6
				c16.345,0,29.642-13.298,29.642-29.642c0-10.401-8.463-18.863-18.863-18.863H99.705z M167.074,299.116
				c0,7.43-6.044,13.474-13.474,13.474h-43.116c-7.43,0-13.474-6.044-13.474-13.474c0-1.486,1.209-2.695,2.695-2.695h64.674
				C165.864,296.422,167.074,297.631,167.074,299.116z"/>
			<path d="M59.284,43.971v122.924c0,4.466,3.62,8.084,8.084,8.084c4.465,0,8.084-3.618,8.084-8.084V43.971
				c0-4.466-3.62-8.084-8.084-8.084C62.904,35.887,59.284,39.505,59.284,43.971z"/>
			<path d="M75.738,250.153c5.452,8.725,14.849,13.933,25.137,13.933h62.335c10.287,0,19.685-5.208,25.136-13.933l60.503-96.805
				c9.967-15.948,15.235-34.316,15.235-53.121c0-8.52-1.073-16.988-3.188-25.167c-1.118-4.323-5.527-6.918-9.851-5.802
				c-4.322,1.118-6.92,5.529-5.802,9.851c1.774,6.858,2.673,13.962,2.673,21.118c0,15.772-4.418,31.177-12.777,44.552
				l-60.503,96.805c-2.478,3.966-6.75,6.333-11.426,6.333h-62.335c-4.676,0-8.948-2.367-11.426-6.333l-60.503-96.805
				c-8.359-13.375-12.777-28.78-12.777-44.552c0-46.349,37.708-84.057,84.059-84.057h63.63c7.682,0,15.291,1.035,22.615,3.075
				c4.305,1.199,8.759-1.318,9.958-5.618c1.198-4.301-1.317-8.759-5.618-9.956c-8.737-2.435-17.807-3.669-26.955-3.669h-63.63
				C44.961,0.002,0,44.963,0,100.227c0,18.805,5.268,37.173,15.235,53.12L75.738,250.153z"/>
			<path d="M503.916,495.832h-3.767l-33.11-231.766c-2.407-16.85-12.981-31.354-28.286-38.8
				c-15.305-7.444-33.242-6.813-47.986,1.691l-35.601,20.539c-0.072,0.041-0.144,0.082-0.216,0.125l-98.021,56.551
				c-0.104,0.056-0.205,0.114-0.306,0.176l-76.216,43.972c-3.867,2.23-5.193,7.174-2.963,11.042
				c2.231,3.869,7.177,5.195,11.043,2.962l66.015-38.085l7.206,50.439c0.632,4.42,4.728,7.477,9.146,6.86
				c4.42-0.632,7.491-4.727,6.86-9.146l-8.123-56.858l84.493-48.747l15.529,108.701c0.632,4.42,4.725,7.483,9.146,6.86
				c4.42-0.632,7.491-4.727,6.86-9.146l-15.591-109.137c-0.28-1.963-0.67-3.902-1.166-5.806l29.984-17.299
				c10.239-5.906,22.205-6.327,32.833-1.157c10.628,5.172,17.682,14.847,19.354,26.547l32.783,229.479h-26.241
				c-3.13-23.669-19.799-43.69-42.584-50.967v-0.233c0-25.26-20.55-45.81-45.811-45.81c-4.681,0-9.335,0.721-13.772,2.116
				c-7.934-14.443-23.15-23.674-40.122-23.674c-18.624,0-34.91,11.199-42.012,27.532c-6.819-3.9-14.565-5.974-22.662-5.974
				c-8.097,0-15.843,2.074-22.662,5.974c-7.102-16.332-23.388-27.532-42.012-27.532c-18.624,0-34.91,11.199-42.012,27.532
				c-6.819-3.9-14.565-5.974-22.662-5.974c-24.355,0-44.332,19.106-45.732,43.116h-2.773c-31.437,0-57.482,23.524-61.454,53.895
				h-3.22C3.62,495.831,0,499.45,0,503.915c0,4.466,3.62,8.084,8.084,8.084h43.475c4.465,0,8.084-3.618,8.084-8.084
				c0-4.466-3.62-8.084-8.084-8.084H27.662c3.83-21.418,22.594-37.726,45.096-37.726h10.779c4.465,0,8.084-3.618,8.084-8.084v-5.389
				c0-16.344,13.297-29.642,29.642-29.642c8.146,0,15.743,3.247,21.393,9.139c2.163,2.256,5.434,3.066,8.398,2.073
				c2.964-0.991,5.093-3.601,5.465-6.705c1.783-14.86,14.43-26.067,29.418-26.067c14.988,0,27.635,11.206,29.418,26.067
				c0.373,3.103,2.501,5.714,5.465,6.705c2.963,0.991,6.234,0.183,8.398-2.073c5.65-5.894,13.247-9.139,21.393-9.139
				c8.146,0,15.743,3.247,21.393,9.139c2.163,2.256,5.435,3.066,8.398,2.073c2.964-0.991,5.093-3.601,5.465-6.705
				c1.783-14.86,14.43-26.067,29.418-26.067c12.904,0,24.24,8.246,28.205,20.52c0.739,2.289,2.46,4.129,4.693,5.022
				c2.233,0.89,4.747,0.743,6.861-0.405c4.306-2.341,9.194-3.579,14.134-3.579c16.345,0,29.642,13.298,29.642,29.642v6.47
				c0,3.845,2.708,7.158,6.476,7.924c18.542,3.763,32.644,18.642,35.919,36.807H82.818c-4.465,0-8.084,3.618-8.084,8.084
				c0,4.466,3.62,8.084,8.084,8.084h410.181c0.043,0.001,0.085,0.001,0.128,0.001s0.085,0,0.128-0.001h10.661
				c4.465,0,8.084-3.619,8.084-8.084C512,499.451,508.38,495.832,503.916,495.832z"/>
			<path d="M123.958,37.458v187.015c0,4.466,3.62,8.084,8.084,8.084s8.084-3.618,8.084-8.084V37.458c0-4.466-3.62-8.084-8.084-8.084
				S123.958,32.993,123.958,37.458z"/>
		</g>
	</g>
</g>
</svg>